<svg xmlns="http://www.w3.org/2000/svg" fill="none" viewBox="0 0 240 240"><g clip-path="url(#a)"><path fill="#00E5DF" d="M120 0c66.24 0 120 53.76 120 120 0 66.24-53.76 120-120 120C53.76 240 0 186.24 0 120 0 53.76 53.76 0 120 0Z"/><path fill="#000" d="M39.843 113.628c-1.83 0-3.645-.202-5.445-.605a20.848 20.848 0 0 1-5.119-1.905v-6.415c3.32 2.015 6.841 3.022 10.564 3.022 2.11 0 3.708-.357 4.794-1.069 1.117-.713 1.675-1.705 1.675-2.975 0-.961-.279-1.704-.837-2.231-.528-.558-1.241-.992-2.141-1.302-.9-.34-1.908-.65-3.025-.93-1.83-.433-3.444-.929-4.84-1.487-1.396-.557-2.575-1.208-3.537-1.952-.962-.774-1.691-1.688-2.187-2.742-.497-1.085-.745-2.37-.745-3.858 0-2.107.527-3.92 1.582-5.438 1.086-1.518 2.606-2.68 4.561-3.486 1.955-.837 4.282-1.255 6.98-1.255 1.77 0 3.507.201 5.213.604 1.707.403 3.242.945 4.608 1.627v6.321c-1.366-.836-2.917-1.487-4.654-1.952a19.575 19.575 0 0 0-5.166-.697c-1.893 0-3.366.325-4.421.976-1.024.65-1.536 1.58-1.536 2.789 0 .867.248 1.565.745 2.091.496.496 1.194.915 2.094 1.255.93.31 2.017.62 3.258.93 1.582.403 3.056.852 4.42 1.348 1.366.465 2.56 1.069 3.584 1.813a7.368 7.368 0 0 1 2.42 2.835c.59 1.146.884 2.556.884 4.23 0 2.2-.543 4.09-1.628 5.67-1.086 1.549-2.653 2.742-4.7 3.579-2.048.806-4.515 1.209-7.4 1.209Zm19.232-.698V79.697h11.96c4.282 0 7.57.945 9.867 2.835 2.296 1.89 3.444 4.602 3.444 8.135 0 2.323-.528 4.307-1.583 5.949-1.024 1.611-2.528 2.85-4.514 3.718-1.986.837-4.406 1.255-7.26 1.255h-4.84v11.341h-7.074Zm7.074-16.965h4.468c2.11 0 3.707-.418 4.793-1.255 1.117-.867 1.675-2.215 1.675-4.043 0-1.829-.558-3.177-1.675-4.044-1.086-.868-2.668-1.302-4.747-1.302H66.15v10.644ZM104.787 79c2.513 0 4.778.403 6.794 1.209 2.048.805 3.785 1.967 5.213 3.486 1.458 1.487 2.575 3.3 3.35 5.438.776 2.107 1.164 4.493 1.164 7.158 0 2.633-.388 5.019-1.164 7.157-.775 2.139-1.892 3.967-3.35 5.485-1.428 1.518-3.165 2.68-5.213 3.486-2.016.806-4.281 1.209-6.794 1.209s-4.794-.403-6.842-1.209c-2.016-.806-3.754-1.968-5.212-3.486-1.427-1.518-2.529-3.346-3.304-5.485-.776-2.138-1.164-4.524-1.164-7.157 0-2.665.388-5.051 1.164-7.158.775-2.138 1.877-3.951 3.304-5.438 1.458-1.519 3.196-2.68 5.212-3.486 2.048-.806 4.329-1.209 6.842-1.209Zm0 28.399c1.892 0 3.521-.434 4.886-1.301 1.365-.899 2.405-2.169 3.118-3.812.714-1.642 1.071-3.64 1.071-5.995s-.357-4.354-1.071-5.996c-.713-1.643-1.753-2.898-3.118-3.765-1.365-.868-2.994-1.302-4.886-1.302-1.893 0-3.522.434-4.887 1.302-1.365.867-2.404 2.122-3.118 3.765-.714 1.642-1.07 3.64-1.07 5.996 0 2.355.356 4.353 1.07 5.995.714 1.643 1.753 2.913 3.118 3.812 1.365.867 2.994 1.301 4.887 1.301Zm29.261-6.553v12.084h-7.074V79.697h12.147c4.375 0 7.725.914 10.052 2.742 2.358 1.829 3.537 4.447 3.537 7.856 0 2.2-.527 4.074-1.582 5.624-1.024 1.55-2.498 2.742-4.421 3.579a478.68 478.68 0 0 1 4.142 6.646c1.365 2.2 2.73 4.462 4.095 6.786h-8.237a329.885 329.885 0 0 0-6.934-12.084h-5.725Zm0-5.624h4.654c2.203 0 3.878-.388 5.026-1.162 1.148-.806 1.722-2.061 1.722-3.765 0-1.705-.574-2.96-1.722-3.765-1.117-.806-2.776-1.209-4.979-1.209h-4.701v9.9Zm21.311-15.525h28.11v6.228h-10.471v27.005h-7.167V85.925h-10.472v-6.228Zm41.78 33.931c-1.83 0-3.645-.202-5.445-.605a20.848 20.848 0 0 1-5.119-1.905v-6.415c3.32 2.015 6.841 3.022 10.564 3.022 2.11 0 3.708-.357 4.794-1.069 1.117-.713 1.675-1.705 1.675-2.975 0-.961-.279-1.704-.838-2.231-.527-.558-1.241-.992-2.14-1.302-.9-.34-1.908-.65-3.025-.93-1.831-.433-3.444-.929-4.84-1.487-1.397-.557-2.576-1.208-3.537-1.952-.962-.774-1.691-1.688-2.188-2.742-.496-1.085-.744-2.37-.744-3.858 0-2.107.527-3.92 1.582-5.438 1.086-1.518 2.606-2.68 4.561-3.486 1.954-.837 4.281-1.255 6.981-1.255 1.768 0 3.506.201 5.212.604 1.706.403 3.242.945 4.607 1.627v6.321c-1.365-.836-2.916-1.487-4.654-1.952a19.568 19.568 0 0 0-5.165-.697c-1.893 0-3.367.325-4.421.976-1.024.65-1.536 1.58-1.536 2.789 0 .867.248 1.565.744 2.091.497.496 1.195.915 2.095 1.255.93.31 2.016.62 3.257.93a46.67 46.67 0 0 1 4.421 1.348c1.366.465 2.56 1.069 3.584 1.813a7.362 7.362 0 0 1 2.42 2.835c.589 1.146.884 2.556.884 4.23 0 2.2-.543 4.09-1.629 5.67-1.086 1.549-2.652 2.742-4.7 3.579-2.048.806-4.514 1.209-7.4 1.209ZM43.986 128.667h22.897v5.95h-15.73v7.204h13.962v5.949H51.153v8.181h16.615v5.949H43.986v-33.233ZM92.857 161.9a176.934 176.934 0 0 0-3.583-6.181 247.276 247.276 0 0 0-3.816-6.089 222.625 222.625 0 0 0-3.863 6.135 155.492 155.492 0 0 0-3.537 6.135h-8.33a822.065 822.065 0 0 1 5.63-8.598 329.156 329.156 0 0 1 5.911-8.599 278.876 278.876 0 0 1-5.445-7.995 495.167 495.167 0 0 1-5.166-8.041h8.517a492.374 492.374 0 0 0 3.118 5.485 192.277 192.277 0 0 0 3.35 5.345 217.66 217.66 0 0 0 3.305-5.299 195.342 195.342 0 0 0 3.165-5.531h8.33a581.774 581.774 0 0 1-5.212 7.995 323.74 323.74 0 0 1-5.352 7.948 525.701 525.701 0 0 1 5.864 8.599c1.923 2.881 3.8 5.779 5.631 8.691h-8.517Zm9.692-33.233h28.109v6.229h-10.471V161.9h-7.167v-27.004h-10.471v-6.229Zm39.453 21.149V161.9h-7.074v-33.233h12.146c4.375 0 7.726.914 10.053 2.743 2.358 1.828 3.537 4.446 3.537 7.855 0 2.2-.528 4.074-1.583 5.624-1.023 1.549-2.497 2.742-4.421 3.579a478.68 478.68 0 0 1 4.142 6.646 331.23 331.23 0 0 1 4.096 6.786h-8.238a329.885 329.885 0 0 0-6.934-12.084h-5.724Zm0-5.624h4.654c2.202 0 3.878-.388 5.026-1.162 1.148-.806 1.722-2.061 1.722-3.765 0-1.705-.574-2.96-1.722-3.765-1.117-.806-2.777-1.209-4.98-1.209h-4.7v9.901Zm48.911 17.708a629.856 629.856 0 0 0-2.42-7.204h-13.496c-.807 2.386-1.613 4.787-2.42 7.204h-7.679a714.23 714.23 0 0 1 6.422-17.058 701.668 701.668 0 0 1 6.655-16.175h7.726a776.299 776.299 0 0 1 6.702 16.64 790.653 790.653 0 0 1 6.375 16.593h-7.865Zm-13.868-13.153h9.354c-.745-2.17-1.52-4.323-2.327-6.461a479.981 479.981 0 0 0-2.327-6.368 570.906 570.906 0 0 0-4.7 12.829Z"/></g><defs><clipPath id="a"><path fill="#fff" d="M0 0h240v240H0z"/></clipPath></defs></svg>