<svg viewBox="0 0 240 240" fill="none" xmlns="http://www.w3.org/2000/svg"><g clip-path="url(#a)"><path d="M120 0c66.24 0 120 53.76 120 120 0 66.24-53.76 120-120 120C53.76 240 0 186.24 0 120 0 53.76 53.76 0 120 0Z" fill="#00E5DF"/><path d="M38.355 113.313c-1.858 0-3.7-.201-5.526-.604a21.363 21.363 0 0 1-5.196-1.906v-6.414c3.37 2.014 6.943 3.021 10.722 3.021 2.141 0 3.763-.356 4.865-1.069 1.134-.713 1.7-1.704 1.7-2.975 0-.96-.283-1.704-.85-2.231-.535-.557-1.26-.991-2.172-1.301-.914-.34-1.937-.65-3.07-.93-1.859-.433-3.496-.93-4.913-1.487-1.417-.558-2.614-1.209-3.59-1.952-.976-.775-1.716-1.689-2.22-2.743-.504-1.084-.756-2.37-.756-3.857 0-2.107.536-3.92 1.606-5.438 1.103-1.519 2.646-2.68 4.63-3.487 1.983-.836 4.345-1.254 7.085-1.254 1.794 0 3.558.201 5.29.604 1.732.403 3.29.945 4.676 1.627v6.32c-1.385-.836-2.96-1.486-4.723-1.951a20.146 20.146 0 0 0-5.243-.698c-1.921 0-3.417.326-4.488.977-1.039.65-1.558 1.58-1.558 2.788 0 .868.252 1.565.755 2.092.504.496 1.213.914 2.126 1.255.945.31 2.047.62 3.306.93a48 48 0 0 1 4.488 1.348c1.385.464 2.598 1.069 3.637 1.812a7.398 7.398 0 0 1 2.456 2.835c.598 1.147.897 2.557.897 4.23 0 2.2-.55 4.09-1.653 5.671-1.102 1.549-2.692 2.742-4.77 3.579-2.079.805-4.582 1.208-7.51 1.208Zm19.519-.697V79.383h12.14c4.345 0 7.683.945 10.013 2.835 2.33 1.89 3.496 4.602 3.496 8.134 0 2.324-.536 4.307-1.606 5.95-1.04 1.61-2.567 2.85-4.582 3.718-2.015.837-4.472 1.255-7.369 1.255h-4.912v11.341h-7.18Zm7.18-16.965h4.534c2.142 0 3.763-.419 4.866-1.255 1.133-.868 1.7-2.216 1.7-4.044 0-1.828-.567-3.176-1.7-4.044-1.103-.867-2.709-1.301-4.818-1.301h-4.582V95.65Zm39.215-16.965c2.551 0 4.85.402 6.897 1.208 2.078.806 3.841 1.968 5.29 3.486 1.48 1.487 2.614 3.3 3.401 5.438.787 2.107 1.181 4.493 1.181 7.158 0 2.634-.394 5.02-1.181 7.158-.787 2.138-1.921 3.966-3.401 5.485-1.449 1.518-3.212 2.68-5.29 3.486-2.047.805-4.346 1.208-6.897 1.208-2.55 0-4.865-.403-6.943-1.208-2.047-.806-3.81-1.968-5.29-3.486-1.449-1.519-2.567-3.347-3.354-5.485-.787-2.138-1.181-4.524-1.181-7.158 0-2.665.394-5.05 1.18-7.158.788-2.138 1.906-3.95 3.355-5.438 1.48-1.518 3.243-2.68 5.29-3.486 2.078-.806 4.393-1.209 6.943-1.209Zm0 28.399c1.921 0 3.574-.434 4.96-1.302 1.386-.898 2.441-2.169 3.165-3.811.724-1.642 1.086-3.64 1.086-5.996 0-2.355-.362-4.353-1.086-5.996-.724-1.642-1.779-2.897-3.165-3.765-1.386-.867-3.039-1.301-4.96-1.301-1.92 0-3.574.434-4.96 1.301-1.385.868-2.44 2.123-3.164 3.765-.724 1.642-1.086 3.641-1.086 5.996 0 2.355.362 4.354 1.086 5.996.724 1.642 1.78 2.913 3.165 3.811 1.385.868 3.039 1.302 4.959 1.302Zm29.7-6.554v12.085h-7.18V79.383h12.328c4.44 0 7.841.914 10.203 2.742 2.393 1.828 3.59 4.447 3.59 7.855 0 2.2-.536 4.075-1.606 5.624-1.039 1.55-2.535 2.743-4.487 3.58a466.867 466.867 0 0 1 4.203 6.646c1.386 2.2 2.772 4.462 4.157 6.786h-8.36a330.617 330.617 0 0 0-7.038-12.085h-5.81Zm0-5.624h4.723c2.236 0 3.936-.387 5.101-1.162 1.166-.806 1.748-2.06 1.748-3.765 0-1.704-.582-2.959-1.748-3.765-1.133-.805-2.818-1.208-5.054-1.208h-4.77v9.9Zm21.629-15.524h28.53v6.228H173.5v27.005h-7.274V85.611h-10.628v-6.228Zm42.405 33.93c-1.858 0-3.7-.201-5.526-.604a21.363 21.363 0 0 1-5.196-1.906v-6.414c3.369 2.014 6.943 3.021 10.722 3.021 2.141 0 3.763-.356 4.865-1.069 1.134-.713 1.701-1.704 1.701-2.975 0-.96-.284-1.704-.85-2.231-.536-.557-1.26-.991-2.173-1.301-.913-.34-1.937-.65-3.071-.93-1.857-.433-3.495-.93-4.912-1.487-1.417-.558-2.614-1.209-3.59-1.952-.976-.775-1.716-1.689-2.22-2.743-.504-1.084-.756-2.37-.756-3.857 0-2.107.536-3.92 1.606-5.438 1.103-1.519 2.646-2.68 4.629-3.487 1.984-.836 4.346-1.254 7.086-1.254 1.795 0 3.558.201 5.29.604 1.732.403 3.291.945 4.676 1.627v6.32c-1.385-.836-2.96-1.486-4.723-1.951a20.148 20.148 0 0 0-5.243-.698c-1.921 0-3.417.326-4.488.977-1.039.65-1.558 1.58-1.558 2.788 0 .868.252 1.565.755 2.092.504.496 1.213.914 2.126 1.255.945.31 2.047.62 3.306.93 1.606.402 3.102.852 4.488 1.348 1.385.464 2.598 1.069 3.637 1.812a7.404 7.404 0 0 1 2.456 2.835c.598 1.147.897 2.557.897 4.23 0 2.2-.551 4.09-1.653 5.671-1.102 1.549-2.692 2.742-4.771 3.579-2.078.805-4.581 1.208-7.51 1.208Zm-175.024 15.04h23.239v5.949H30.253v7.205h14.17v5.949h-14.17v8.181h16.862v5.949H22.978v-33.233Zm49.601 33.233a176.5 176.5 0 0 0-3.636-6.182 248.733 248.733 0 0 0-3.874-6.089 220.684 220.684 0 0 0-3.92 6.136 155.004 155.004 0 0 0-3.59 6.135h-8.455a818.934 818.934 0 0 1 5.715-8.599 325.303 325.303 0 0 1 6-8.599 278.851 278.851 0 0 1-5.527-7.994 493.594 493.594 0 0 1-5.243-8.041h8.644a488.253 488.253 0 0 0 3.164 5.484 191.745 191.745 0 0 0 3.401 5.346 221.611 221.611 0 0 0 3.354-5.299 194.682 194.682 0 0 0 3.212-5.531h8.455a583.019 583.019 0 0 1-5.29 7.994 321.836 321.836 0 0 1-5.432 7.948 524.92 524.92 0 0 1 5.951 8.599 375.803 375.803 0 0 1 5.716 8.692H72.58Zm9.837-33.233h28.53v6.228h-10.628v27.005h-7.274v-27.005H82.417v-6.228Zm40.043 21.148v12.085h-7.18v-33.233h12.328c4.44 0 7.841.914 10.203 2.742 2.393 1.828 3.59 4.447 3.59 7.855 0 2.2-.535 4.075-1.606 5.624-1.039 1.55-2.535 2.743-4.487 3.579 1.417 2.2 2.818 4.416 4.204 6.647 1.385 2.2 2.771 4.462 4.156 6.786h-8.36a330.617 330.617 0 0 0-7.038-12.085h-5.81Zm0-5.624h4.723c2.236 0 3.936-.387 5.102-1.162 1.165-.806 1.747-2.061 1.747-3.765 0-1.704-.582-2.959-1.747-3.765-1.134-.805-2.819-1.208-5.055-1.208h-4.77v9.9Zm49.643 17.709a664.365 664.365 0 0 0-2.456-7.204h-13.699c-.818 2.386-1.637 4.787-2.456 7.204h-7.793a699.952 699.952 0 0 1 6.518-17.058 685.583 685.583 0 0 1 6.755-16.175h7.84a761.853 761.853 0 0 1 6.802 16.64 775.746 775.746 0 0 1 6.471 16.593h-7.982Zm-14.076-13.154h9.494a225.964 225.964 0 0 0-2.362-6.461 475.336 475.336 0 0 0-2.361-6.367 564.302 564.302 0 0 0-4.771 12.828Zm58.92 4.09c0 2.014-.551 3.75-1.653 5.206-1.07 1.425-2.613 2.526-4.629 3.3-1.984.775-4.361 1.162-7.132 1.162a26.62 26.62 0 0 1-5.054-.465 19 19 0 0 1-4.677-1.487v-5.903a25.82 25.82 0 0 0 4.393 1.58c1.48.372 3.118.558 4.913.558 2.141 0 3.763-.372 4.865-1.115 1.133-.775 1.7-1.875 1.7-3.3 0-1.457-.551-2.557-1.653-3.301-1.102-.743-2.708-1.115-4.818-1.115h-5.007v-5.485h4.771c2.015 0 3.543-.372 4.582-1.115 1.07-.744 1.606-1.782 1.606-3.114 0-1.178-.504-2.092-1.512-2.743-1.008-.65-2.44-.976-4.298-.976-1.134 0-2.189.093-3.165.279-.976.155-1.921.387-2.834.697a19.5 19.5 0 0 0-2.787 1.209v-5.764c2.929-1.425 6.172-2.138 9.73-2.138 2.457 0 4.582.357 6.377 1.069 1.795.682 3.165 1.674 4.11 2.975.976 1.27 1.464 2.789 1.464 4.555 0 1.704-.488 3.207-1.464 4.509-.945 1.27-2.283 2.246-4.015 2.928 1.952.651 3.464 1.658 4.534 3.021 1.102 1.363 1.653 3.021 1.653 4.973Z" fill="#000"/></g><defs><clipPath id="a"><path fill="#fff" d="M0 0h240v240H0z"/></clipPath></defs></svg>