<svg xmlns="http://www.w3.org/2000/svg" viewBox="0 0 300 300"><path d="M150 0c82.8 0 150 67.2 150 150s-67.2 150-150 150S0 232.8 0 150 67.2 0 150 0z" fill="#008482"/><path d="M45.4 171.9c-3.1 0-6.1-.5-9-1.5-2.5-.9-4.8-2.4-6.7-4.3-1.9-2-3.3-4.3-4.2-6.9-1-3-1.5-6.1-1.5-9.2 0-3.1.5-6.1 1.5-9 1.9-5.3 6-9.4 11.3-11.3 2.9-1.1 5.9-1.6 9-1.5 2.2 0 4.4.2 6.5.7 2 .5 3.9 1.2 5.7 2.1v8.3c-1.6-1.1-3.4-1.9-5.2-2.5-1.9-.6-3.9-.9-5.9-.8-2.5-.1-5 .5-7.3 1.6-2 1.1-3.6 2.7-4.6 4.7-1.1 2.4-1.7 5-1.6 7.6-.1 2.6.5 5.2 1.6 7.6 1 2 2.5 3.7 4.5 4.8 2.2 1.2 4.7 1.7 7.2 1.6 4.2 0 8.4-1.2 11.9-3.5v8.1c-1.9 1-3.9 1.8-6 2.3-2.3.7-4.8 1.1-7.2 1.1zm40.4-16.7v15.9h-9v-15.9c-2.7-4.3-5.4-8.6-8-12.9s-5.2-8.7-7.7-13.1h10.2c1.6 3.1 3.2 6.2 4.9 9.2 1.7 3.1 3.4 6.1 5.1 9.1 1.8-3 3.5-6.1 5.2-9.2s3.3-6.1 5-9.2h10c-2.5 4.4-5.1 8.7-7.7 13.1s-5.3 8.7-8 13zm38.2 8c-1.7-3.4-3.4-6.9-5-10.3-1.6-3.5-3.3-6.9-4.9-10.3V171h-8.6v-41.9h10.8c1.8 4.3 3.7 8.6 5.6 12.8 1.9 4.3 3.9 8.5 5.9 12.7 2-4.2 3.9-8.4 5.8-12.6s3.8-8.5 5.6-12.9h10.5V171h-8.6v-28.6c-1.6 3.5-3.2 7-4.9 10.4-1.7 3.5-3.3 6.9-5 10.3l-7.2.1zm41.7-7.4V171h-8.9v-41.9H172c5.5 0 9.7 1.2 12.7 3.5 2.9 2.3 4.4 5.6 4.4 9.9.1 2.5-.6 5-2 7.1-1.4 2-3.3 3.6-5.6 4.5 1.8 2.8 3.5 5.6 5.2 8.3 1.7 2.8 3.4 5.6 5.2 8.6h-10.4c-2.8-5.2-5.7-10.2-8.7-15.2h-7.1zm0-7.1h5.9c2.2.1 4.4-.4 6.3-1.5 1.5-1.1 2.3-2.9 2.2-4.7.1-1.8-.7-3.6-2.1-4.7-1.9-1.1-4.1-1.7-6.3-1.5h-5.9l-.1 12.4zm47.3 23.2c-3.3.1-6.6-.6-9.6-2.1-2.6-1.4-4.8-3.5-6.1-6.2-1.5-3-2.2-6.3-2.1-9.7v-24.7h9v25.7c-.2 2.5.7 4.9 2.3 6.8 3.8 3.2 9.4 3.2 13.2 0 1.6-1.9 2.4-4.3 2.3-6.8v-25.7h9v24.7c.1 3.4-.6 6.7-2.1 9.7-1.4 2.6-3.6 4.8-6.2 6.2-3 1.4-6.3 2.1-9.7 2.1zm63-8.5v7.6h-28.7v-1.6c0-1.9.2-3.8.5-5.6.3-1.6.9-3.2 1.8-4.6 1-1.5 2.1-2.9 3.4-4.2 1.6-1.5 3.4-2.9 5.3-4.1 1.6-1 3.1-2.1 4.5-3.3.9-.7 1.7-1.7 2.3-2.7.4-.8.7-1.8.7-2.7 0-3.6-2.3-5.3-6.8-5.3-1.9 0-3.7.3-5.5.9-1.9.7-3.6 1.6-5.2 2.8v-7.8c1.9-1.1 3.9-2 6-2.6 2.2-.6 4.4-.8 6.6-.8 2.5-.1 5.1.4 7.4 1.4 2 .8 3.7 2.2 4.9 4 1.2 1.8 1.8 3.9 1.8 6.1 0 1.4-.1 2.8-.5 4.2-.3 1.3-.8 2.4-1.6 3.5-.9 1.2-1.9 2.3-3 3.2-1.5 1.3-3.1 2.4-4.8 3.5-1.5.9-2.8 1.9-4.2 2.9-1 .8-1.9 1.7-2.7 2.6-.7.8-1.2 1.7-1.6 2.7l19.4-.1z" fill="#fff"/></svg>