<svg viewBox="0 0 300 300" fill="none" xmlns="http://www.w3.org/2000/svg"><g clip-path="url(#a)"><path d="M150 0c82.8 0 150 67.2 150 150s-67.2 150-150 150S0 232.8 0 150 67.2 0 150 0Z" fill="#EB0000"/><path d="M81.419 174.61a2112.068 2112.068 0 0 0-11.04-17.408 1239.12 1239.12 0 0 0-11.04-16.921v34.329H48.997v-49.688h10.9a1228.953 1228.953 0 0 1 11.143 16.85c3.657 5.628 7.304 11.34 10.937 17.132v-33.982h10.34v49.688h-10.9Zm20.728-49.688h34.346v8.895h-23.594v10.769h20.942v8.896h-20.942v12.232h24.923v8.896h-35.675v-49.688Zm83.052 49.688a1473.811 1473.811 0 0 1-9.041-33.637c-1.39 5.605-2.83 11.214-4.313 16.818a1117.207 1117.207 0 0 1-4.589 16.819h-11.334a965.225 965.225 0 0 1-6.815-24.601 854.43 854.43 0 0 1-6.188-25.087h11.684a938.895 938.895 0 0 0 3.686 19.319 674.991 674.991 0 0 0 4.102 18.973 1529.834 1529.834 0 0 0 8.832-36.208h10.431a1505.013 1505.013 0 0 0 8.761 35.441 927.524 927.524 0 0 0 4.032-18.622 690.719 690.719 0 0 0 3.616-18.903h11.474a854.437 854.437 0 0 1-6.189 25.087 941.049 941.049 0 0 1-6.815 24.601h-11.334Zm44.928 1.088c-2.74 0-5.443-.305-8.113-.904a31.038 31.038 0 0 1-7.696-2.856v-9.609c4.965 3.015 10.235 4.523 15.809 4.523 3.157 0 5.56-.534 7.209-1.601 1.649-1.068 2.474-2.552 2.474-4.453 0-1.438-.408-2.566-1.218-3.376-.815-.811-1.893-1.461-3.237-1.948a46.606 46.606 0 0 0-4.525-1.358c-2.741-.651-5.153-1.391-7.242-2.229-2.089-.834-3.855-1.822-5.293-2.96-1.439-1.137-2.53-2.505-3.275-4.106-.745-1.602-1.115-3.517-1.115-5.746 0-3.156.801-5.872 2.403-8.143 1.602-2.271 3.865-4.027 6.793-5.254 2.923-1.226 6.408-1.845 10.446-1.845 2.646 0 5.246.305 7.799.904 2.553.604 4.853 1.414 6.895 2.435v9.468c-2.042-1.255-4.351-2.229-6.928-2.922a29.62 29.62 0 0 0-7.766-1.044c-2.834 0-5.027.487-6.582 1.461-1.555.974-2.333 2.365-2.333 4.177 0 1.302.37 2.332 1.115 3.1.74.768 1.799 1.391 3.167 1.878 1.368.487 2.984.964 4.839 1.428a77.54 77.54 0 0 1 6.614 1.985c2.043.721 3.841 1.634 5.396 2.749a11.405 11.405 0 0 1 3.621 4.247c.858 1.718 1.289 3.83 1.289 6.335 0 3.297-.815 6.116-2.436 8.457-1.626 2.346-3.968 4.13-7.036 5.362-3.064 1.231-6.755 1.845-11.074 1.845Z" fill="#fff"/></g><defs><clipPath id="a"><path fill="#fff" d="M0 0h300v300H0z"/></clipPath></defs></svg>