<svg xmlns="http://www.w3.org/2000/svg" viewBox="0 0 300 300"><circle cx="150" cy="150" r="150" fill="#d44100"/><path d="M220.3 140.9h-32.4V95.5h31.2v8.1h-21.5v9.8h19v8.1h-19v11.2h22.7v8.2zm-38.3-8.6h-21.5V95.4h-9.8v45.4H182v-8.5zm-83.6 8.5c2.9-8 5.8-15.7 8.8-23.3s6-14.9 9.1-22.1h10.5c3.1 7.5 6.2 15.1 9.2 22.7 3 7.6 5.9 15.2 8.7 22.7H134c-1.1-3.3-2.2-6.6-3.3-9.8h-18.4c-1.1 3.3-2.2 6.5-3.3 9.8H98.4zm16.6-18h12.8c-1-3-2.1-5.9-3.1-8.9s-2.2-5.8-3.2-8.7c-2.3 5.9-4.4 11.8-6.5 17.6zm-58.1 62.4h19v-8.1h-19v-9.8h21.4v-8.1H47.2v45.4h32.4v-8.1H56.9v-11.3zm6-44.4c1.4-5.1 2.8-10.2 4.2-15.4 1.4-5.1 2.7-10.2 3.9-15.4 1.3 5.1 2.7 10.2 4 15.4 1.3 5.1 2.7 10.2 4.2 15.4h10.4c2.2-7.4 4.2-14.9 6.2-22.5s3.9-15.2 5.6-22.9H91.1c-1 5.8-2.1 11.5-3.3 17.3-1.2 5.8-2.4 11.4-3.7 17-1.4-5.3-2.7-10.7-4.1-16.1l-3.9-16.2h-9.5c-2.5 11-5.2 22-8.1 33.1-1.3-5.7-2.6-11.4-3.7-17.3-1.2-5.9-2.3-11.8-3.4-17.6H40.7c1.8 7.7 3.7 15.3 5.6 22.9 2 7.6 4.1 15.1 6.2 22.5l10.4-.2zM111 181c2.5-3.6 4.9-7.2 7.3-10.9 2.4-3.6 4.7-7.3 7.1-10.9H114c-1.4 2.5-2.8 5-4.3 7.5s-3 4.9-4.5 7.3c-1.6-2.4-3.1-4.9-4.5-7.3s-2.9-5-4.3-7.4H84.8c2.3 3.6 4.6 7.3 7 11 2.4 3.7 4.9 7.3 7.4 10.9-2.8 3.9-5.5 7.9-8.1 11.7-2.6 3.9-5.1 7.8-7.7 11.7h11.4c1.5-2.8 3.1-5.6 4.8-8.4 1.7-2.8 3.4-5.6 5.3-8.4 1.8 2.8 3.5 5.5 5.2 8.3 1.7 2.8 3.3 5.6 4.9 8.4h11.6c-2.5-4-5.1-8-7.7-11.9s-5.2-7.7-7.9-11.6zm17.5-13.3h14.3v36.9h9.8v-36.9h14.3v-8.5h-38.3l-.1 8.5zm75.2 27.6c1.9 3 3.7 6.1 5.6 9.3H198c-3-5.6-6.2-11.1-9.5-16.5h-7.8v16.5h-9.6v-45.4h16.6c6 0 10.5 1.2 13.7 3.7 3.2 2.5 4.8 6.1 4.8 10.7.2 5.5-3.1 10.6-8.2 12.6 1.9 3 3.8 6.1 5.7 9.1zm-7.4-21.6c.1-2-.7-3.9-2.3-5.1-1.6-1.1-3.8-1.6-6.8-1.6h-6.4v13.5h6.4c3 0 5.3-.5 6.9-1.6 1.5-1.3 2.4-3.2 2.2-5.2zm53.6 8.2c3 7.6 5.9 15.2 8.7 22.7h-10.7c-1.1-3.3-2.2-6.6-3.3-9.8h-18.4c-1.1 3.3-2.2 6.5-3.3 9.8h-10.5c2.9-8 5.8-15.7 8.8-23.3 3-7.6 6-14.9 9-22.1h10.5c3.1 7.6 6.2 15.1 9.2 22.7zm-8.3 4.7c-1-3-2.1-5.9-3.1-8.9-1.1-2.9-2.1-5.8-3.2-8.7-2.2 5.8-4.3 11.6-6.4 17.5h12.7zm-11.8-69.2c1.5 1.1 3.1 2 4.8 2.7 2.2.8 4.4 1.5 6.6 2 1.4.3 2.8.8 4.1 1.2 1.1.4 2.1 1 3 1.8.8.8 1.2 1.9 1.1 3.1 0 1.7-.8 3.2-2.2 4.1-2 1.1-4.3 1.6-6.6 1.5-5.1 0-10.1-1.4-14.4-4.1v8.8c2.2 1.2 4.6 2 7 2.6 2.4.6 4.9.8 7.4.8 3.4.1 6.9-.5 10.1-1.7 2.6-1 4.8-2.7 6.4-4.9 1.5-2.3 2.3-5 2.2-7.7.1-2-.3-4-1.2-5.8-.8-1.5-1.9-2.9-3.3-3.9-1.5-1.1-3.2-1.9-4.9-2.5-1.9-.7-3.9-1.3-6-1.8-1.7-.4-3.2-.9-4.4-1.3-1.1-.3-2.1-.9-2.9-1.7-.7-.8-1.1-1.8-1-2.8 0-1.6.8-3 2.1-3.8 1.8-1 3.9-1.4 6-1.3 2.4 0 4.8.3 7.1.9 2.2.6 4.3 1.5 6.3 2.7v-8.6c-2-1-4.1-1.7-6.3-2.2-2.3-.5-4.7-.8-7.1-.8-3.3-.1-6.5.5-9.5 1.7-2.5 1-4.6 2.7-6.2 4.8-2.4 3.8-2.9 8.5-1.2 12.7.7 1.2 1.7 2.5 3 3.5z" fill="#fff"/></svg>