<svg xmlns="http://www.w3.org/2000/svg" viewBox="0 0 300 300"><path d="M150 0C67.2 0 0 67.2 0 150s67.2 150 150 150 150-67.2 150-150S232.8 0 150 0z" fill="#cd1f2b"/><path d="M218 227.9c-6.6 8.9-16 15.8-28.2 20.6-12.2 4.8-26.7 7.2-43.6 7.2-10.3.1-20.5-.8-30.7-2.7-9.9-1.9-19.5-5-28.7-9.4V207c8.7 4.1 17.7 7.4 26.9 9.8 9.7 2.4 19.8 3.6 29.8 3.5 13.1 0 23-2.3 29.8-7 6.8-4.7 10.2-11.4 10.2-20.3 0-9-3.4-15.8-10.1-20.5-6.7-4.6-16.5-6.9-29.4-6.9h-30.5v-34h29.1c12.3 0 21.6-2.3 28.1-6.9 6.4-4.6 9.6-11 9.6-19.3.2-6.9-3.3-13.4-9.2-17-6.1-4-14.9-6-26.2-6-6.5 0-12.9.5-19.3 1.6-5.9 1-11.6 2.5-17.3 4.5-5.9 2-11.5 4.6-17 7.5V60.2c17.8-8.8 37.6-13.2 59.3-13.2 15 0 27.9 2.2 38.9 6.5s19.3 10.5 25.2 18.4c5.9 8 8.8 17.5 8.8 28.4.2 10-2.9 19.7-8.8 27.8-5.9 8-14.1 14.1-24.6 18.3 11.9 4 21.2 10.2 27.8 18.7 6.6 8.5 9.9 18.8 9.9 30.8.1 12.4-3.2 23.1-9.8 32z" fill="#fff"/></svg>