<svg xmlns="http://www.w3.org/2000/svg" viewBox="0 0 500 500"><path d="M496.79 289.322c-1.604 8.318-4.144 15.951-7.731 22.736-6.544 12.368-16.123 21.951-28.475 28.485-12.216 6.461-28.214 9.738-44.873 9.738-16.834 0-31.521-3.279-43.654-9.744-12.266-6.536-21.8-16.119-28.336-28.48-6.46-12.21-9.734-27.026-9.734-44.037V151.575h47.363v120.756c0 11.663 2.971 20.622 8.828 26.629 5.91 6.063 14.263 9.011 25.533 9.011 11.267 0 19.62-2.948 25.534-9.011 5.857-6.01 8.827-14.97 8.827-26.629V151.575h29.686C441.556 62.442 353.058 0 249.973 0 111.95 0 .06 111.928.06 250c0 138.071 111.889 250 249.912 250 125.15 0 228.813-92.027 247.059-212.125-.08.488-.16.979-.241 1.447zm-179.448 90.516c-11.036 14.876-26.71 26.32-47.016 34.315-20.315 7.994-44.542 11.996-72.682 11.996-17.916 0-34.946-1.52-51.093-4.559-16.155-3.038-32.07-8.233-47.735-15.598v-60.946c15.03 7.04 29.984 12.474 44.855 16.315 14.873 3.84 31.426 5.76 49.656 5.76 21.746 0 38.297-3.915 49.654-11.758 11.348-7.836 17.03-19.114 17.03-33.836 0-15.034-5.599-26.393-16.79-34.075-11.2-7.676-27.512-11.517-48.936-11.517h-50.852v-56.628h48.455c20.464 0 36.055-3.841 46.775-11.521 10.712-7.678 16.072-18.394 16.072-32.154 0-12.155-5.12-21.595-15.352-28.315-10.24-6.72-24.79-10.078-43.659-10.078-11.514 0-22.232.886-32.143 2.64-9.916 1.763-19.512 4.245-28.785 7.438-9.28 3.203-18.71 7.363-28.304 12.479v-59.511c29.744-14.711 62.681-22.075 98.828-22.075 24.947 0 46.536 3.597 64.767 10.796 18.23 7.198 32.217 17.442 41.977 30.716 9.753 13.281 14.633 29.035 14.633 47.272 0 17.6-4.88 33.04-14.633 46.31-9.76 13.283-23.432 23.444-41.018 30.478 19.826 6.717 35.26 17.118 46.296 31.195 11.034 14.08 16.55 31.192 16.55 51.348 0 20.804-5.516 38.637-16.55 53.513z" fill="#cd1f2b"/><path d="M271.046 243.782c17.586-7.033 31.258-17.195 41.018-30.477 9.753-13.271 14.633-28.71 14.633-46.311 0-18.237-4.88-33.99-14.633-47.272-9.76-13.274-23.748-23.518-41.977-30.716-18.231-7.199-39.82-10.796-64.767-10.796-36.147 0-69.084 7.364-98.828 22.075v59.51c9.594-5.115 19.024-9.275 28.304-12.478 9.273-3.193 18.869-5.675 28.785-7.438 9.911-1.754 20.629-2.64 32.143-2.64 18.869 0 33.418 3.358 43.659 10.078 10.232 6.72 15.352 16.16 15.352 28.315 0 13.76-5.36 24.476-16.072 32.154-10.72 7.68-26.311 11.52-46.775 11.52h-48.455v56.629h50.852c21.424 0 37.736 3.84 48.935 11.517 11.192 7.682 16.791 19.04 16.791 34.075 0 14.722-5.682 26-17.03 33.836-11.357 7.843-27.908 11.757-49.655 11.757-18.23 0-34.782-1.918-49.655-5.76-14.871-3.84-29.826-9.275-44.856-16.314v60.946c15.667 7.365 31.581 12.56 47.736 15.598 16.147 3.038 33.177 4.56 51.093 4.56 28.14 0 52.367-4.003 72.682-11.997 20.307-7.995 35.98-19.439 47.016-34.315 11.034-14.876 16.55-32.709 16.55-53.513 0-20.156-5.516-37.268-16.55-51.348-11.036-14.077-26.47-24.478-46.296-31.195zm208.738-92.207h-29.712v120.756c0 11.66-2.97 20.619-8.827 26.629-5.914 6.063-14.267 9.011-25.534 9.011-11.27 0-19.622-2.948-25.533-9.011-5.857-6.007-8.828-14.966-8.828-26.629V151.575h-47.363V268.02c0 17.011 3.274 31.828 9.734 44.038 6.535 12.36 16.07 21.943 28.336 28.479 12.133 6.465 26.82 9.744 43.654 9.744 16.66 0 32.657-3.277 44.873-9.738 12.352-6.534 21.931-16.117 28.475-28.485 3.587-6.785 6.127-14.418 7.732-22.736 1.874-10.725 3.27-26.774 3.27-39.322 0-34.949-7.33-68.217-20.277-98.425z" fill="#fff"/></svg>