<svg xmlns="http://www.w3.org/2000/svg" viewBox="0 0 300 300"><path d="M150 0c82.8 0 150 67.2 150 150s-67.2 150-150 150S0 232.8 0 150 67.2 0 150 0z" fill="#00874a"/><path d="M41 124.9h33.6v9H51.8v12.4h20.1v9H51.8v19.9H41v-50.3zm63.1-1c3.5-.1 7 .6 10.3 1.8 3 1.1 5.7 2.9 7.9 5.2 2.2 2.4 3.9 5.1 5 8.2 2.3 7.1 2.3 14.6 0 21.7-1.1 3.1-2.8 5.9-5 8.3-2.2 2.3-4.9 4.1-7.9 5.3-6.7 2.4-13.9 2.4-20.6 0-3-1.2-5.7-3-7.9-5.3-2.2-2.4-3.9-5.2-5-8.3-2.3-7.1-2.3-14.6 0-21.7 1.1-3.1 2.8-5.9 5-8.2s4.9-4.1 7.9-5.2c3.3-1.3 6.8-1.9 10.3-1.8zm0 43c2.6.1 5.2-.6 7.4-2 2.1-1.4 3.7-3.4 4.7-5.7 2.2-5.9 2.2-12.3 0-18.2-1-2.3-2.6-4.3-4.7-5.7-4.6-2.6-10.2-2.6-14.8 0-2.1 1.4-3.7 3.4-4.7 5.7-2.2 5.9-2.2 12.3 0 18.2 1 2.3 2.6 4.3 4.7 5.7 2.2 1.4 4.8 2.1 7.4 2zm53.6-10.7v19.1h-10.9v-19.1c-3.3-5.2-6.5-10.4-9.7-15.6-3.1-5.2-6.2-10.5-9.2-15.7h12.3c1.9 3.7 3.9 7.4 6 11.1 2 3.7 4.1 7.4 6.2 11 2.1-3.7 4.2-7.3 6.2-11l6-11.1h12c-3.1 5.3-6.2 10.5-9.3 15.7s-6.3 10.4-9.6 15.6zm24.3-31.3h10.9v40.9h23.9v9.4H182v-50.3zm41 0h34.7v9h-23.8v10.9H255v9h-21.1v12.4H259v9h-36v-50.3z" fill="#fff"/></svg>