<svg xmlns="http://www.w3.org/2000/svg" viewBox="0 0 300 300"><path d="M150 0c82.8 0 150 67.2 150 150s-67.2 150-150 150S0 232.8 0 150 67.2 0 150 0z" fill="#d44100"/><path d="M73.3 175.2c-1.6-5.7-3.2-11.4-4.7-17-1.5-5.7-3-11.4-4.5-17-1.4 5.7-2.9 11.4-4.4 17-1.5 5.7-3.1 11.4-4.6 17H43.7c-2.4-8.2-4.7-16.5-6.9-24.9s-4.3-16.9-6.3-25.4h11.8c1.2 6.5 2.4 13.1 3.7 19.6s2.7 12.9 4.2 19.2c3.1-12.3 6.1-24.5 8.9-36.7h10.6c1.4 6 2.9 12 4.3 18 1.5 6 3 12 4.5 17.9 1.4-6.2 2.8-12.5 4.1-18.9s2.5-12.8 3.7-19.2H98c-2 8.5-4.1 17-6.3 25.4s-4.5 16.7-6.9 24.9l-11.5.1zm60.1 0c-1.2-3.7-2.4-7.3-3.7-10.9h-20.4c-1.2 3.6-2.4 7.3-3.7 10.9H94c3.2-8.8 6.4-17.4 9.8-25.9 3.3-8.4 6.7-16.6 10-24.5h11.7c3.5 8.4 6.9 16.8 10.2 25.2s6.5 16.8 9.6 25.2h-11.9zm-21-20h14.2c-1.1-3.3-2.3-6.6-3.5-9.8-1.2-3.3-2.4-6.5-3.6-9.6-2.4 6.4-4.8 12.9-7.1 19.4zm38.1-30.4h10.8v40.9h23.9v9.4h-34.7v-50.3zm40.4 0h34.7v9h-23.8v10.9h21.1v9h-21.1v12.4h25.1v9h-36v-50.3zm57.8 51.4c-2.8 0-5.5-.3-8.2-.9-2.7-.6-5.3-1.6-7.8-2.9v-9.7c4.8 3 10.3 4.6 16 4.6 3.2 0 5.6-.5 7.3-1.6 1.6-.9 2.5-2.7 2.5-4.5.1-1.2-.4-2.5-1.2-3.4-.9-.9-2.1-1.6-3.3-2-1.5-.5-3-1-4.6-1.4-2.5-.6-4.9-1.3-7.3-2.3-1.9-.7-3.8-1.7-5.4-3-1.4-1.1-2.6-2.5-3.3-4.2-.8-1.8-1.2-3.8-1.1-5.8-.1-2.9.8-5.8 2.4-8.2 1.7-2.4 4.1-4.2 6.9-5.3 3.4-1.3 7-2 10.6-1.9 2.7 0 5.3.3 7.9.9 2.4.6 4.8 1.4 7 2.5v9.6c-2.2-1.3-4.5-2.3-7-3-2.6-.7-5.2-1.1-7.9-1.1-2.3-.1-4.6.4-6.7 1.5-1.5.9-2.4 2.5-2.4 4.2-.1 1.1.3 2.3 1.1 3.1.9.9 2 1.5 3.2 1.9 1.6.6 3.2 1 4.9 1.4 2.4.6 4.6 1.3 6.7 2 1.9.7 3.8 1.6 5.5 2.8 1.6 1.1 2.8 2.6 3.7 4.3.9 2 1.4 4.2 1.3 6.4.1 3.1-.8 6.1-2.5 8.6-1.8 2.5-4.2 4.4-7.1 5.4-3.6 1.5-7.4 2.1-11.2 2z" fill="#fff"/></svg>