<svg xmlns="http://www.w3.org/2000/svg" viewBox="0 0 300 300"><path d="M300 150c0 82.8-67.2 150-150 150S0 232.8 0 150 67.2 0 150 0s150 67.2 150 150z" fill="#7826fc"/><path d="M33.4 167.5c-1.8 0-3.7-.2-5.5-.6-1.8-.4-3.6-1.1-5.2-1.9v-6.5c3.2 2 6.9 3 10.7 3 1.7.1 3.4-.3 4.9-1.1 1.1-.6 1.7-1.8 1.7-3 .1-.8-.2-1.7-.8-2.3-.6-.6-1.4-1-2.2-1.3-1-.4-2-.7-3.1-.9-1.7-.4-3.3-.9-4.9-1.5-1.3-.5-2.5-1.2-3.6-2-.9-.7-1.7-1.7-2.2-2.8-.5-1.2-.8-2.5-.8-3.9-.1-2 .5-3.9 1.6-5.5 1.2-1.6 2.7-2.8 4.6-3.5 2.2-.9 4.6-1.3 7-1.2 1.8 0 3.5.2 5.3.6 1.6.4 3.2.9 4.6 1.6v6.4c-1.5-.9-3-1.6-4.7-2-1.7-.5-3.5-.7-5.2-.7-1.5-.1-3.1.3-4.4 1-1 .6-1.6 1.7-1.6 2.8 0 .8.2 1.5.8 2.1.6.6 1.3 1 2.1 1.3.9.3 2 .6 3.3 1 1.6.4 3.1.9 4.5 1.3 1.3.4 2.5 1.1 3.6 1.9 1 .7 1.9 1.7 2.4 2.9.6 1.3.9 2.8.9 4.3.1 2-.5 4-1.6 5.7-1.2 1.6-2.8 2.9-4.7 3.6-2.4.8-4.9 1.2-7.5 1.2zm41.3-.7v-14.4H60.1v14.4h-7.2v-33.6h7.2v12.9h14.6v-12.9h7.2v33.6h-7.2zM89 133.2h23.1v6H96.3v7.3h14.1v6H96.3v8.3H113v6H89v-33.6zm26.3 0h28.4v6.3h-10.5v27.3H126v-27.3h-10.6l-.1-6.3zm32.7 0h7.2v27.3h15.9v6.3H148v-33.6zm51.6 33.6c-.8-2.5-1.6-4.9-2.5-7.3h-13.6c-.8 2.4-1.6 4.8-2.4 7.3h-7.8c2.1-5.9 4.3-11.6 6.5-17.2s4.4-11 6.7-16.3h7.8c2.3 5.6 4.6 11.2 6.8 16.8s4.3 11.2 6.4 16.8l-7.9-.1zm-14-13.3h9.4c-.8-2.2-1.5-4.4-2.3-6.5s-1.6-4.3-2.4-6.4c-1.6 4.2-3.2 8.6-4.7 12.9zm47.8 13.3c-2.4-3.9-4.9-7.8-7.4-11.8s-5-7.8-7.4-11.4v23.2h-6.9v-33.6h7.4l7.5 11.4c2.5 3.8 4.9 7.7 7.4 11.6v-23h7v33.6h-7.6zm14.4-33.6h12.8c3.1-.1 6.3.6 9.1 2 2.5 1.3 4.5 3.2 5.8 5.7 2.6 5.8 2.6 12.4 0 18.1-1.3 2.5-3.3 4.5-5.8 5.8-2.8 1.4-6 2.1-9.1 2h-12.8v-33.6zm12.4 27.4c3.1 0 5.5-.9 7.2-2.8s2.5-4.5 2.5-7.9c0-3.4-.8-6-2.5-7.8-1.6-1.8-4-2.7-7.2-2.7H255v21.2h5.2z" fill="#fff"/></svg>