<svg xmlns="http://www.w3.org/2000/svg" viewBox="0 0 500 500"><path d="M476.595 354.58a4242.632 4242.632 0 0 0-14.81-44.162h-82.417c-4.94 14.632-9.877 29.351-14.815 44.166l-.32.962h-51.057l.682-1.884c13.115-36.263 26.687-72.225 40.337-106.888 13.625-34.593 27.589-68.693 41.503-101.355l.364-.855h50.199l.36.866a5731.156 5731.156 0 0 1 52.114 129.839A252.931 252.931 0 0 0 500 250C500 111.93 388.07 0 250 0 111.928 0 0 111.93 0 250c0 138.072 111.928 250 250 250 100.47 0 187.083-59.276 226.814-144.757l-.219-.664zm-174.85 65.348h-71.809v-261.87a3126.646 3126.646 0 0 0-39.497 20.584c-13.248 7.025-25.78 13.881-37.581 20.587v-66.066c12.76-7.34 26.966-15.081 42.608-23.22 15.635-8.138 32.075-16.35 49.31-24.658h56.97v334.643zm118.819-224.54a3594.826 3594.826 0 0 0-27.408 74.951h54.563a2044.456 2044.456 0 0 0-13.761-38.724 8279.412 8279.412 0 0 0-13.394-36.228z"/><path d="M488.701 249.542a5731.11 5731.11 0 0 0-42.08-104.112l-.36-.866h-50.199l-.364.855c-13.914 32.662-27.878 66.762-41.503 101.355-13.65 34.663-27.222 70.625-40.337 106.888l-.682 1.884h51.056l.32-.962c4.939-14.815 9.875-29.534 14.816-44.166h82.418a4244.076 4244.076 0 0 1 14.81 44.161l.217.661a248.346 248.346 0 0 0 21.92-79.975 5858.685 5858.685 0 0 0-10.032-25.723zm-95.545 20.797a3594.794 3594.794 0 0 1 27.408-74.952 8279.4 8279.4 0 0 1 13.394 36.228c4.695 12.8 9.321 25.818 13.761 38.724h-54.563zm-91.41 149.589V85.285h-56.97c-17.235 8.307-33.676 16.52-49.31 24.658-15.642 8.139-29.848 15.88-42.608 23.22v66.066c11.802-6.706 24.333-13.562 37.581-20.587a3126.644 3126.644 0 0 1 39.497-20.584v261.87h71.81z" fill="#fff"/></svg>