<svg xmlns="http://www.w3.org/2000/svg" viewBox="0 0 300 300"><path d="M300 150c0 82.8-67.2 150-150 150S0 232.8 0 150 67.2 0 150 0s150 67.2 150 150z" fill="#007cc2"/><path d="M274.1 185.1v6.6H250v-35h7.5v28.4h16.6zm-198-31.8h7c-1.1-1.1-2.3-2.2-3.5-3.3s-2.4-2.2-3.5-3.1l-8.3.1c1.6 1.1 3.1 2.2 4.5 3.3 1.4 1.1 2.7 2.1 3.8 3zm-32.4 19v5.9H50v7c-.8.3-1.7.5-2.6.6-.9.1-1.7.2-2.6.2-3 .2-6-1-8.1-3.1-2-2.4-3-5.5-2.8-8.7 0-2.2.4-4.3 1.4-6.3.9-1.7 2.3-3.1 4-4 1.9-1 4.1-1.5 6.3-1.4 1.9 0 3.8.2 5.7.7 1.7.5 3.4 1.2 4.9 2.1v-6.9c-1.7-.8-3.5-1.4-5.4-1.8-2-.4-4.1-.6-6.1-.6-2.6 0-5.2.4-7.7 1.3-4.5 1.6-8 5-9.7 9.4-.9 2.4-1.3 4.9-1.3 7.5-.1 2.6.3 5.2 1.2 7.6 1.5 4.4 5 7.9 9.4 9.4 2.5.8 5.1 1.2 7.7 1.2 1.5 0 3.1-.1 4.6-.3s3-.6 4.4-1c1.3-.4 2.6-.9 3.8-1.5l-.1-17.3H43.7zm45.4 2c2.3 5.9 4.5 11.7 6.7 17.5l-8.3-.1c-.8-2.6-1.7-5.1-2.5-7.6H70.7c-.8 2.5-1.7 5-2.5 7.6h-8.1c2.2-6.1 4.5-12.1 6.8-17.9 2.3-5.8 4.6-11.5 7-17H82c2.4 5.8 4.8 11.6 7.1 17.5zm-6.4 3.5c-.8-2.3-1.6-4.6-2.4-6.8-.8-2.3-1.7-4.5-2.5-6.7-1.7 4.5-3.3 9-4.9 13.5h9.8zm95.3-59.3c2.5 3.8 5.1 7.8 7.7 11.9 2.6 4 5.2 8.1 7.7 12.2l7.7.1v-35h-7.2v23.9c-2.6-4.1-5.1-8.1-7.7-12.1s-5.2-8-7.8-11.9h-7.6v35h7.2v-24.1zm-71.8 0c2.5 3.8 5.1 7.8 7.7 11.9 2.6 4 5.2 8.1 7.7 12.2l7.7.1v-35h-7.2v23.9c-2.6-4.1-5.1-8.1-7.7-12.1s-5.2-8-7.8-11.9H99v35h7.2v-24.1zm34.3 24.1h-8.1c2.2-6.1 4.5-12.1 6.8-17.9 2.3-5.8 4.6-11.5 7-17h8.1c2.4 5.8 4.8 11.6 7.1 17.5s4.5 11.7 6.7 17.5l-8.4-.1c-.8-2.6-1.7-5.1-2.5-7.6H143c-.8 2.5-1.7 5-2.5 7.6zm4.6-13.8h9.8c-.8-2.3-1.6-4.6-2.4-6.8-.8-2.3-1.7-4.5-2.5-6.7-1.7 4.5-3.3 9-4.9 13.5zm95.3 45.5c2.3 5.9 4.5 11.7 6.7 17.5l-8.4-.1c-.8-2.6-1.7-5.1-2.5-7.6H222c-.8 2.5-1.7 5-2.5 7.6h-8.1c2.2-6.1 4.5-12.1 6.8-17.9 2.3-5.8 4.6-11.5 7-17h8.1c2.4 5.8 4.8 11.6 7.1 17.5zm-6.5 3.5c-.8-2.3-1.6-4.6-2.4-6.8-.8-2.3-1.7-4.5-2.5-6.7-1.7 4.5-3.3 9-4.9 13.5h9.8zm-42.8-.9h14.7v-6.3h-14.7V163h16.5v-6.3h-24v35.1h25v-6.3h-17.5v-8.6zm-49.4-12.2c2.7 6 2.7 12.9 0 18.9-1.3 2.6-3.4 4.7-6 6-2.9 1.5-6.2 2.2-9.5 2.1h-13.3v-35h13.3c3.3-.1 6.6.6 9.5 2.1 2.5 1.3 4.6 3.4 6 5.9zm-5.8 9.4c.2-2.9-.7-5.8-2.6-8.1-2-2-4.7-3-7.5-2.8h-5.4v22h5.4c2.8.2 5.5-.9 7.5-2.9 1.8-2.3 2.8-5.2 2.6-8.2zm34.6-4h-15.2v-13.4h-7.5v35h7.5v-15h15.2v15h7.5v-35h-7.5v13.4zm-71.4 21.6h7.5v-35h-7.5v35z" fill="#fff"/></svg>