<svg xmlns="http://www.w3.org/2000/svg" viewBox="0 0 240 240"><path d="M199.886 91.685h-14.173v59.506h14.041c8.948 0 15.934-2.618 20.764-7.783 4.805-5.14 7.24-12.597 7.24-22.161 0-9.481-2.392-16.852-7.11-21.907-4.741-5.08-11.726-7.655-20.762-7.655Zm1.283 82.032h-37.916V69.159h38.058c10.556 0 19.71 2.067 27.203 6.145a42.298 42.298 0 0 1 3.803 2.37 120 120 0 1 0-1.475 88.375c-.782.503-1.581.995-2.405 1.451-7.445 4.125-16.62 6.217-27.268 6.217Zm-56.375 27.848h-34.469V75.868q-9.426 4.825-18.958 9.88-9.539 5.058-18.04 9.882V63.918q9.188-5.285 20.453-11.146 11.256-5.859 23.669-11.835h27.345Z"/><path d="M93.78 52.772q-11.263 5.86-20.452 11.146V95.63q8.497-4.828 18.039-9.882 9.532-5.052 18.958-9.88v125.697h34.469V40.937h-27.345q-12.41 5.981-23.67 11.835Zm138.537 24.902a42.55 42.55 0 0 0-3.803-2.37c-7.494-4.078-16.647-6.145-27.203-6.145h-38.058v104.558h37.916c10.649 0 19.823-2.092 27.268-6.217a43.43 43.43 0 0 0 2.405-1.451 120.388 120.388 0 0 0 1.475-88.375Zm-11.799 65.734c-4.83 5.165-11.816 7.783-20.764 7.783h-14.04V91.685h14.172c9.036 0 16.021 2.575 20.762 7.655 4.718 5.055 7.11 12.426 7.11 21.907 0 9.564-2.435 17.02-7.24 22.161Z" fill="#fff"/></svg>