<svg xmlns="http://www.w3.org/2000/svg" fill="none" viewBox="0 0 240 240"><g clip-path="url(#a)"><path fill="#00E5DF" d="M120 0c66.24 0 120 53.76 120 120 0 66.24-53.76 120-120 120C53.76 240 0 186.24 0 120 0 53.76 53.76 0 120 0Z"/><path fill="#000" d="M39.093 113.802c-1.839 0-3.662-.203-5.47-.608a20.948 20.948 0 0 1-5.142-1.915v-6.446c3.335 2.024 6.872 3.036 10.612 3.036 2.12 0 3.724-.358 4.815-1.074 1.122-.717 1.683-1.713 1.683-2.99 0-.966-.28-1.713-.842-2.242-.53-.561-1.246-.997-2.15-1.308a27.147 27.147 0 0 0-3.039-.935c-1.839-.436-3.459-.934-4.861-1.494-1.403-.561-2.587-1.215-3.553-1.962-.966-.779-1.699-1.698-2.198-2.757-.498-1.09-.747-2.382-.747-3.877 0-2.117.53-3.94 1.589-5.465 1.09-1.526 2.618-2.694 4.581-3.504 1.964-.84 4.301-1.261 7.012-1.261 1.777 0 3.522.202 5.236.607 1.714.405 3.257.95 4.628 1.635v6.353c-1.371-.84-2.93-1.495-4.675-1.962a19.654 19.654 0 0 0-5.189-.7c-1.9 0-3.381.327-4.44.98-1.029.655-1.543 1.589-1.543 2.803 0 .872.25 1.573.748 2.103.498.498 1.2.918 2.103 1.26a44.98 44.98 0 0 0 3.273.935c1.59.405 3.07.857 4.44 1.355 1.372.467 2.572 1.074 3.6 1.822a7.404 7.404 0 0 1 2.431 2.85c.592 1.151.888 2.568.888 4.25 0 2.211-.545 4.111-1.636 5.699-1.09 1.557-2.664 2.756-4.721 3.597-2.057.81-4.535 1.215-7.433 1.215Zm19.317-.701v-33.4h12.015c4.3 0 7.604.95 9.91 2.85 2.307 1.899 3.46 4.624 3.46 8.174 0 2.336-.53 4.329-1.59 5.98-1.028 1.619-2.54 2.865-4.534 3.737-1.995.84-4.426 1.261-7.293 1.261h-4.862v11.398h-7.105Zm7.106-17.05h4.488c2.12 0 3.724-.421 4.815-1.262 1.122-.872 1.683-2.227 1.683-4.064 0-1.837-.56-3.192-1.683-4.064-1.09-.872-2.68-1.308-4.768-1.308h-4.535v10.698ZM104.328 79c2.524 0 4.799.405 6.825 1.215 2.057.81 3.802 1.977 5.236 3.503 1.464 1.495 2.586 3.317 3.365 5.466.779 2.117 1.169 4.515 1.169 7.193 0 2.648-.39 5.046-1.169 7.194-.779 2.149-1.901 3.987-3.365 5.513-1.434 1.526-3.179 2.693-5.236 3.503-2.026.81-4.301 1.215-6.825 1.215-2.525 0-4.815-.405-6.872-1.215-2.026-.81-3.771-1.977-5.236-3.503-1.434-1.526-2.54-3.364-3.32-5.513-.778-2.148-1.168-4.546-1.168-7.194 0-2.678.39-5.076 1.169-7.193.779-2.15 1.885-3.971 3.319-5.466 1.465-1.526 3.21-2.694 5.236-3.503 2.057-.81 4.347-1.215 6.872-1.215Zm0 28.542c1.901 0 3.537-.436 4.908-1.308 1.371-.903 2.415-2.18 3.132-3.831.717-1.65 1.075-3.659 1.075-6.026 0-2.366-.358-4.375-1.075-6.026-.717-1.65-1.761-2.911-3.132-3.783-1.371-.872-3.007-1.308-4.908-1.308-1.901 0-3.538.436-4.909 1.308-1.371.872-2.415 2.133-3.132 3.783-.717 1.65-1.075 3.66-1.075 6.026 0 2.367.358 4.376 1.075 6.026.717 1.651 1.76 2.928 3.132 3.831 1.371.872 3.008 1.308 4.909 1.308Zm29.393-6.587v12.146h-7.106v-33.4h12.201c4.394 0 7.76.918 10.098 2.756 2.368 1.837 3.553 4.469 3.553 7.894 0 2.212-.53 4.096-1.59 5.653-1.028 1.557-2.509 2.756-4.441 3.597a488.988 488.988 0 0 1 4.161 6.68 327.503 327.503 0 0 1 4.113 6.82h-8.274a333.184 333.184 0 0 0-6.965-12.146h-5.75Zm0-5.652h4.674c2.213 0 3.896-.39 5.049-1.168 1.153-.81 1.73-2.07 1.73-3.784 0-1.712-.577-2.974-1.73-3.783-1.122-.81-2.789-1.215-5.002-1.215h-4.721v9.95ZM155.127 79.7h28.236v6.26h-10.518v27.141h-7.199v-27.14h-10.519V79.7Zm41.968 34.102c-1.839 0-3.662-.203-5.47-.608a20.958 20.958 0 0 1-5.142-1.915v-6.446c3.335 2.024 6.872 3.036 10.612 3.036 2.119 0 3.724-.358 4.815-1.074 1.122-.717 1.683-1.713 1.683-2.99 0-.966-.281-1.713-.842-2.242-.529-.561-1.246-.997-2.15-1.308a27.162 27.162 0 0 0-3.039-.935c-1.838-.436-3.459-.934-4.861-1.494-1.403-.561-2.587-1.215-3.553-1.962-.966-.779-1.699-1.698-2.197-2.757-.499-1.09-.748-2.382-.748-3.877 0-2.117.53-3.94 1.589-5.465 1.091-1.526 2.618-2.694 4.581-3.504 1.964-.84 4.301-1.261 7.013-1.261 1.776 0 3.521.202 5.235.607 1.714.405 3.257.95 4.628 1.635v6.353c-1.371-.84-2.929-1.495-4.674-1.962a19.655 19.655 0 0 0-5.189-.7c-1.901 0-3.382.327-4.441.98-1.029.655-1.543 1.589-1.543 2.803 0 .872.249 1.573.748 2.103.499.498 1.2.918 2.104 1.26a44.78 44.78 0 0 0 3.272.935c1.589.405 3.07.857 4.441 1.355 1.371.467 2.571 1.074 3.599 1.822a7.4 7.4 0 0 1 2.431 2.85c.593 1.151.889 2.568.889 4.25 0 2.211-.546 4.111-1.637 5.699-1.09 1.557-2.664 2.756-4.721 3.597-2.057.81-4.535 1.215-7.433 1.215Zm-173.22 15.115h23v5.979H31.074v7.241h14.024v5.979H31.074v8.222h16.689v5.979H23.875v-33.4Zm49.091 33.4a177.454 177.454 0 0 0-3.6-6.213 250.656 250.656 0 0 0-3.834-6.119 222.07 222.07 0 0 0-3.88 6.166 156.376 156.376 0 0 0-3.552 6.166h-8.368a825.403 825.403 0 0 1 5.656-8.642 330.283 330.283 0 0 1 5.937-8.642 279.554 279.554 0 0 1-5.47-8.035 497.109 497.109 0 0 1-5.188-8.081h8.555a493.89 493.89 0 0 0 3.132 5.512 193.444 193.444 0 0 0 3.365 5.372 221.422 221.422 0 0 0 3.32-5.325c1.09-1.838 2.15-3.691 3.178-5.559h8.368a592.608 592.608 0 0 1-5.235 8.035 327.95 327.95 0 0 1-5.376 7.988 523.971 523.971 0 0 1 5.89 8.642 378.348 378.348 0 0 1 5.656 8.735h-8.554Zm9.734-33.4h28.236v6.259h-10.518v27.141h-7.2v-27.141H82.7v-6.259Zm39.63 21.254v12.146h-7.105v-33.4h12.201c4.394 0 7.76.918 10.097 2.756 2.369 1.837 3.553 4.469 3.553 7.894 0 2.212-.53 4.096-1.589 5.653-1.029 1.557-2.509 2.756-4.441 3.597a483.42 483.42 0 0 1 4.16 6.68 323.202 323.202 0 0 1 4.114 6.82h-8.274a331.738 331.738 0 0 0-6.966-12.146h-5.75Zm0-5.652h4.675c2.213 0 3.896-.389 5.049-1.168 1.153-.809 1.73-2.071 1.73-3.784 0-1.712-.577-2.974-1.73-3.783-1.122-.81-2.789-1.215-5.002-1.215h-4.722v9.95Zm49.132 17.798a678.717 678.717 0 0 0-2.431-7.241h-13.557c-.81 2.398-1.621 4.812-2.431 7.241h-7.713a709.752 709.752 0 0 1 6.451-17.144 700.715 700.715 0 0 1 6.685-16.256h7.76a783.962 783.962 0 0 1 6.732 16.723 798.486 798.486 0 0 1 6.404 16.677h-7.9Zm-13.931-13.22h9.396a230.616 230.616 0 0 0-2.337-6.493 484.91 484.91 0 0 0-2.338-6.4 578.394 578.394 0 0 0-4.721 12.893Zm58.36 7.147v6.073h-22.907v-1.308c0-1.682.141-3.177.421-4.485a12.267 12.267 0 0 1 1.402-3.69c.686-1.152 1.59-2.258 2.712-3.317 1.153-1.09 2.571-2.195 4.254-3.316 1.527-1.028 2.727-1.915 3.599-2.663.904-.747 1.528-1.448 1.87-2.102a4.513 4.513 0 0 0 .561-2.196c0-2.833-1.823-4.25-5.469-4.25-1.527 0-3.008.249-4.441.747-1.403.467-2.789 1.215-4.161 2.242v-6.213c1.59-.934 3.195-1.619 4.815-2.055 1.621-.436 3.382-.654 5.283-.654 2.275 0 4.254.374 5.937 1.121 1.683.747 2.992 1.806 3.927 3.177.935 1.37 1.402 2.989 1.402 4.858 0 1.214-.125 2.32-.374 3.316a8.72 8.72 0 0 1-1.262 2.803c-.592.841-1.403 1.698-2.431 2.57-1.028.871-2.306 1.79-3.833 2.756-1.34.84-2.462 1.619-3.366 2.335-.873.717-1.59 1.417-2.151 2.102a7.648 7.648 0 0 0-1.262 2.149h15.474Z"/></g><defs><clipPath id="a"><path fill="#fff" d="M0 0h240v240H0z"/></clipPath></defs></svg>