<svg xmlns="http://www.w3.org/2000/svg" viewBox="0 0 300 300"><path d="M150 0c82.8 0 150 67.2 150 150s-67.2 150-150 150S0 232.8 0 150 67.2 0 150 0z" fill="#258900"/><path d="M45.3 174.6c-3.8.1-7.5-.7-10.9-2.4-3-1.6-5.4-4-6.9-7-1.7-3.4-2.5-7.2-2.4-11v-27.9h10.2v29c0 3.4.9 5.9 2.6 7.7s4.2 2.7 7.4 2.7 5.7-.9 7.4-2.7 2.6-4.4 2.6-7.7v-29h10.2v27.9c.1 3.8-.7 7.6-2.4 11-1.6 3-4 5.4-7 7-3.3 1.7-7.1 2.5-10.8 2.4zm28.4-48.3h10.2v38.4h22.4v8.9H73.7v-47.3zm52.7 48.3c-2.6 0-5.2-.3-7.7-.9-2.5-.6-5-1.5-7.3-2.7v-9.1c4.5 2.8 9.7 4.3 15 4.3 2.4.1 4.7-.4 6.8-1.5 1.5-.9 2.4-2.5 2.3-4.2.1-1.2-.3-2.4-1.2-3.2s-1.9-1.5-3.1-1.9c-1.4-.5-2.8-.9-4.3-1.3-2.4-.5-4.7-1.2-6.9-2.1-1.8-.7-3.5-1.6-5-2.8-1.3-1-2.4-2.4-3.1-3.9-.7-1.7-1.1-3.6-1.1-5.5-.1-2.8.7-5.5 2.3-7.7 1.6-2.2 3.8-4 6.4-5 3.2-1.2 6.5-1.8 9.9-1.8 2.5 0 5 .3 7.4.9 2.3.5 4.4 1.3 6.5 2.3v9c-2.1-1.2-4.3-2.2-6.6-2.8-2.4-.7-4.9-1-7.4-1-2.2-.1-4.3.4-6.2 1.4-1.4.8-2.3 2.4-2.2 4-.1 1.1.3 2.2 1.1 2.9.9.8 1.9 1.4 3 1.8 1.3.5 2.8.9 4.6 1.4 2.2.6 4.3 1.2 6.3 1.9 1.8.6 3.5 1.5 5.1 2.6 1.5 1 2.6 2.4 3.4 4 .9 1.9 1.3 3.9 1.2 6 .1 2.8-.7 5.7-2.3 8-1.7 2.3-4 4.1-6.7 5.1-3.2 1.3-6.7 1.9-10.2 1.8zm22.6-48.3h40v8.9h-14.9v38.4h-10.2v-38.4H149v-8.9zm46.2 0h32.5v8.5h-22.4v10.3h19.8v8.5h-19.8v11.6H229v8.5h-33.8v-47.4zm50.1 30.1v17.2h-10.1v-47.3h17.3c6.2 0 11 1.3 14.3 3.9s5 6.3 5 11.2c.1 2.8-.7 5.6-2.2 8-1.6 2.2-3.8 4-6.3 5.1 2 3.1 3.9 6.3 5.9 9.4 1.9 3.2 3.9 6.4 5.8 9.7h-11.7c-3.2-5.8-6.5-11.6-9.9-17.2h-8.1zm0-8h6.6c3.1 0 5.5-.6 7.1-1.7 1.7-1.2 2.6-3.2 2.4-5.3.2-2.1-.8-4.1-2.4-5.4-1.6-1.1-4-1.7-7.1-1.7h-6.7v14.1h.1z" fill="#fff"/></svg>