<svg xmlns="http://www.w3.org/2000/svg" viewBox="0 0 300 300"><path d="M150 0c82.8 0 150 67.2 150 150s-67.2 150-150 150S0 232.8 0 150 67.2 0 150 0z" fill="#7826fc"/><path d="M34 167.6c-1.9 0-3.7-.2-5.5-.6-1.8-.4-3.6-1.1-5.2-1.9v-6.5c3.2 2 6.9 3.1 10.7 3.1 1.7.1 3.4-.3 4.9-1.1 1.1-.6 1.7-1.8 1.7-3 0-.8-.3-1.7-.8-2.3-.6-.6-1.4-1-2.2-1.3-1-.4-2-.7-3.1-.9-1.7-.4-3.3-.9-4.9-1.5-1.3-.5-2.5-1.2-3.6-2-1-.7-1.7-1.7-2.2-2.8-.5-1.2-.8-2.6-.8-3.9-.1-2 .5-3.9 1.6-5.5 1.2-1.6 2.8-2.8 4.6-3.6 2.3-.9 4.7-1.3 7.1-1.3 1.8 0 3.6.2 5.3.6 1.6.4 3.2.9 4.7 1.7v6.4c-1.5-.9-3-1.6-4.7-2-1.7-.5-3.5-.7-5.3-.7-1.6-.1-3.1.3-4.5 1-1 .6-1.6 1.7-1.6 2.8 0 .8.2 1.5.8 2.1.6.6 1.3 1 2.2 1.3.9.3 2 .7 3.3 1 1.6.4 3.1.9 4.5 1.3 1.3.4 2.5 1.1 3.7 1.9 1 .7 1.9 1.7 2.5 2.9.6 1.3.9 2.8.9 4.3.1 2-.5 4-1.7 5.7s-2.9 2.9-4.8 3.6c-2.5.9-5 1.3-7.6 1.2zm34.2 0c-2.5 0-4.9-.4-7.2-1.2-2-.7-3.9-1.9-5.4-3.5s-2.7-3.5-3.4-5.6c-.8-2.4-1.2-4.9-1.2-7.4s.4-4.9 1.2-7.3c1.5-4.2 4.9-7.6 9.1-9.1 2.3-.8 4.8-1.3 7.3-1.2 1.8 0 3.5.2 5.3.6 1.6.4 3.2 1 4.6 1.7v6.7c-1.3-.9-2.7-1.6-4.2-2-1.5-.5-3.2-.7-4.8-.7-2-.1-4.1.4-5.9 1.3-1.6.9-2.9 2.2-3.7 3.8-.9 1.9-1.4 4-1.3 6.1-.1 2.1.4 4.2 1.3 6.1.8 1.6 2.1 3 3.6 3.9 1.8.9 3.8 1.4 5.8 1.3 3.4 0 6.7-.9 9.6-2.8v6.6c-1.5.8-3.1 1.5-4.8 1.9-2.1.6-4 .8-5.9.8zm29.9-35.2c2.4 0 4.7.4 6.9 1.2 2 .8 3.8 2 5.3 3.5 1.5 1.6 2.7 3.5 3.4 5.5 1.6 4.7 1.6 9.9 0 14.6-.7 2.1-1.9 4-3.4 5.6s-3.3 2.8-5.3 3.5c-4.5 1.6-9.4 1.6-13.9 0-2-.8-3.8-2-5.3-3.5-1.5-1.6-2.7-3.5-3.4-5.6-1.6-4.7-1.6-9.9 0-14.6.7-2.1 1.9-3.9 3.4-5.5 1.5-1.5 3.3-2.7 5.3-3.5 2.3-.8 4.6-1.2 7-1.2zm0 28.9c1.8 0 3.5-.4 5-1.3 1.4-.9 2.5-2.3 3.2-3.9 1.4-3.9 1.4-8.3 0-12.2-.6-1.6-1.7-2.9-3.2-3.8-3.1-1.8-6.9-1.8-9.9 0-1.4.9-2.5 2.3-3.2 3.8a17.1 17.1 0 0 0 0 12.2c.6 1.6 1.7 2.9 3.2 3.9 1.4.9 3.1 1.3 4.9 1.3zm17.7-28.2h28.6v6.3h-10.6v27.5h-7.3v-27.5h-10.6l-.1-6.3zm32.5 0h7.3v27.5h16v6.3h-23.3v-33.8zm52.6 33.8c-.8-2.5-1.6-4.9-2.5-7.3h-13.7c-.8 2.4-1.6 4.9-2.5 7.3h-7.8c2.1-5.9 4.3-11.7 6.5-17.4 2.2-5.6 4.5-11.1 6.7-16.5h7.8c2.3 5.6 4.6 11.2 6.8 16.9s4.4 11.3 6.5 16.9h-7.8v.1zm-14.1-13.4h9.5c-.8-2.2-1.5-4.4-2.3-6.6-.8-2.2-1.6-4.3-2.4-6.5-1.7 4.4-3.3 8.7-4.8 13.1zm47.7 13.4c-2.5-3.9-4.9-7.9-7.5-11.8-2.5-4-5-7.8-7.5-11.5V167h-7v-33.8h7.4c2.6 3.8 5.1 7.6 7.5 11.5 2.5 3.8 4.9 7.7 7.4 11.7v-23.1h7v33.8h-7.3v-.2zm12.7-33.8h12.9c3.2-.1 6.3.6 9.1 2 2.5 1.3 4.5 3.3 5.8 5.7 2.7 5.8 2.6 12.5 0 18.3-1.3 2.5-3.3 4.5-5.8 5.8-2.8 1.4-6 2.1-9.2 2h-12.9l.1-33.8zm12.4 27.6c3.2 0 5.6-.9 7.3-2.8 1.7-1.8 2.5-4.5 2.5-8 0-3.4-.8-6.1-2.5-7.9-1.7-1.8-4.1-2.7-7.3-2.7h-5.2v21.3l5.2.1z" fill="#fff"/></svg>