<svg xmlns="http://www.w3.org/2000/svg" viewBox="0 0 300 300"><circle cx="150" cy="150" r="150" fill="#00f320"/><path d="M170.5 165.2c5.8 5.7 8.6 13.5 8.6 23.4.1 6.1-1.1 12.2-3.7 17.7-2.3 4.9-6 9-10.6 11.8-5 2.9-10.6 4.3-16.4 4.2-11.5 0-20.5-4.4-26.9-13.2-6.4-8.8-10.2-21.9-11.4-39.1 5.1-4.2 10.8-7.5 17-9.8 6.3-2.3 12.9-3.5 19.6-3.4 10.1 0 18.1 2.8 23.8 8.4zm51.2 23.8c0-13.2-2.6-24.6-7.9-34.2a54.21 54.21 0 0 0-22.4-22.1c-9.7-5.2-21.1-7.8-34.4-7.8-16.9-.1-33.3 5.7-46.3 16.4 4.4-38.9 23.9-58.4 58.4-58.4 7.2 0 14.4.7 21.4 2.3 7.2 1.7 14.3 4 21.1 6.9V56.6c-7.1-3.1-14.6-5.5-22.1-7.2-7.6-1.6-15.3-2.3-23-2.3-15.3 0-29.1 2.6-41.4 7.8-12 5-22.7 12.6-31.2 22.4C85.3 87.1 78.8 99 74.3 113s-6.8 29.7-6.8 47.2c0 20.3 3.2 37.6 9.6 51.8s15.8 25 28 32.5c12.3 7.5 27 11.2 44.3 11.2 10 .2 19.9-1.4 29.4-4.7 8.4-2.9 16.2-7.5 22.9-13.5 6.4-5.8 11.5-13 14.8-21 3.6-8.7 5.3-18.1 5.2-27.5z"/></svg>