<svg xmlns="http://www.w3.org/2000/svg" viewBox="0 0 300 300"><circle cx="150" cy="150" r="150" fill="#00e5df"/><path d="M213.8 225.5c-6.6 9.8-16.1 17.2-28.6 22.4-12.4 5.2-27.5 7.8-45.1 7.8-10.4 0-20.7-.9-30.9-2.7-9.9-1.8-19.6-4.8-28.9-8.8V208c18 8.3 37.6 12.7 57.4 12.6 13.8 0 24.3-2.6 31.4-7.9 7.2-5.3 10.8-12.8 10.8-22.5 0-19.9-15.3-29.9-46-29.9-7.5 0-14.9.3-22.3 1s-15.8 1.8-25.1 3.3l9.8-113.5h117.2v35.3h-81.1l-3.6 42.8c4.4-.8 9-1.3 13.1-1.6s7.9-.4 11.3-.4c14.5 0 27.1 2.5 37.6 7.5 10.1 4.6 18.6 12.2 24.3 21.7 5.6 9.5 8.5 20.8 8.5 34 .1 13.7-3.2 25.4-9.8 35.1z"/></svg>