<svg xmlns="http://www.w3.org/2000/svg" viewBox="0 0 300 300"><path d="M150 0c82.8 0 150 67.2 150 150s-67.2 150-150 150S0 232.8 0 150 67.2 0 150 0z" fill="#2b6ecc"/><path d="M51.1 176.2c-3.7.1-7.3-.6-10.8-1.8-3.1-1.1-5.8-2.9-8.1-5.2-2.3-2.4-4-5.2-5.1-8.3-1.2-3.5-1.8-7.3-1.8-11-.1-3.7.6-7.4 1.8-10.8 2.3-6.3 7.3-11.3 13.6-13.6 3.5-1.3 7.1-1.9 10.8-1.8 2.6 0 5.3.3 7.9.9 2.4.6 4.7 1.4 6.9 2.6v10c-1.9-1.3-4-2.3-6.3-3s-4.7-1-7.1-1c-3-.1-6.1.6-8.8 2-2.4 1.3-4.3 3.3-5.6 5.7-1.4 2.8-2 5.9-1.9 9.1-.1 3.1.5 6.3 1.9 9.1 1.2 2.4 3.1 4.4 5.4 5.7 2.7 1.4 5.6 2.1 8.6 2 5.1 0 10-1.4 14.3-4.2v9.8c-2.3 1.2-4.7 2.2-7.2 2.8-2.7.7-5.6 1.1-8.5 1zm48.7-20.1v19.1H88.9v-19.1c-3.3-5.2-6.5-10.4-9.7-15.6-3.1-5.2-6.2-10.5-9.2-15.7h12.3c1.9 3.7 3.9 7.4 6 11.1 2 3.7 4.1 7.4 6.2 11 2.1-3.7 4.2-7.3 6.2-11l6-11.1h12c-3.1 5.3-6.2 10.5-9.3 15.7-3.1 5.2-6.3 10.4-9.6 15.6zm46 9.7c-2.1-4.1-4.1-8.3-6.1-12.4-2-4.2-3.9-8.3-5.8-12.4v34.2h-10.4v-50.4h13c2.2 5.2 4.5 10.3 6.8 15.5 2.3 5.1 4.6 10.2 7 15.3 2.3-5 4.7-10.1 7-15.2s4.5-10.3 6.7-15.5h12.7v50.4h-10.4v-34.4c-1.9 4.2-3.9 8.4-5.9 12.6-2 4.2-4 8.3-6 12.4h-8.6v-.1zm50.1-8.9v18.3h-10.7v-50.4h18.4c6.6 0 11.7 1.4 15.3 4.2 3.5 2.8 5.3 6.7 5.3 11.9.1 3-.7 6-2.4 8.5-1.7 2.4-4 4.3-6.7 5.4 2.1 3.3 4.2 6.7 6.3 10 2.1 3.4 4.1 6.8 6.2 10.3h-12.5c-3.4-6.2-6.9-12.3-10.5-18.3l-8.7.1zm0-8.6h7c3.3 0 5.9-.6 7.6-1.8 1.8-1.3 2.8-3.5 2.6-5.7.2-2.2-.8-4.4-2.6-5.7-1.7-1.2-4.2-1.8-7.6-1.8h-7.1l.1 15zm56.9 27.9c-4 .1-8-.8-11.6-2.6-3.2-1.7-5.7-4.3-7.4-7.4-1.8-3.6-2.7-7.6-2.6-11.7v-29.7H242v30.9c0 3.6.9 6.3 2.8 8.2 1.9 1.9 4.5 2.9 7.9 2.9 3.4 0 6.1-1 7.9-2.9 1.9-1.9 2.8-4.6 2.8-8.2v-30.9h10.8v29.7c.1 4.1-.8 8.1-2.6 11.7-1.7 3.2-4.3 5.8-7.4 7.4-3.4 1.9-7.4 2.7-11.4 2.6z" fill="#fff"/></svg>