<svg xmlns="http://www.w3.org/2000/svg" viewBox="0 0 300 300"><path d="M150 0c82.8 0 150 67.2 150 150s-67.2 150-150 150S0 232.8 0 150 67.2 0 150 0z" fill="#7826fc"/><path d="M54.4 130.8c.6 1.2.8 2.6.8 3.9.1 1.9-.5 3.7-1.5 5.2-1.1 1.5-2.6 2.7-4.4 3.3-2.2.8-4.5 1.2-6.9 1.1-1.7 0-3.4-.2-5-.6-1.7-.4-3.3-1-4.8-1.8v-6c2.9 1.8 6.3 2.8 9.8 2.8 1.6.1 3.1-.3 4.5-1 1-.6 1.6-1.6 1.5-2.8 0-.8-.2-1.5-.8-2.1-.6-.5-1.3-1-2-1.2-.8-.3-1.8-.6-2.8-.8-1.5-.3-3-.8-4.5-1.4-1.2-.4-2.3-1.1-3.3-1.8-.9-.7-1.5-1.6-2-2.6-.5-1.1-.7-2.3-.7-3.6 0-1.8.5-3.6 1.5-5.1A9.7 9.7 0 0 1 38 113c2.1-.8 4.3-1.2 6.5-1.1 1.6 0 3.3.2 4.9.6 1.5.3 2.9.8 4.3 1.5v5.9c-1.3-.8-2.8-1.4-4.3-1.8-1.6-.4-3.2-.7-4.8-.6-1.4-.1-2.8.2-4.1.9-.9.5-1.5 1.5-1.4 2.6 0 .7.2 1.4.7 1.9.6.5 1.3.9 2 1.2l3 .9c1.5.4 2.8.8 4.1 1.2 1.2.4 2.3 1 3.4 1.7.9.9 1.6 1.8 2.1 2.9zm33 43.2h13v-5.5h-13v-6.7H102v-5.5H80.8v30.9h22.1v-5.5H87.4V174zm-3.7-31.9v-6c-2.6 1.7-5.7 2.6-8.8 2.6-1.8.1-3.7-.4-5.3-1.2-1.4-.8-2.6-2-3.3-3.5-.8-1.8-1.2-3.7-1.1-5.6-.1-1.9.4-3.8 1.2-5.6.8-1.5 1.9-2.7 3.4-3.5 1.7-.9 3.5-1.3 5.4-1.2 1.5 0 3 .2 4.4.6 1.4.4 2.7 1 3.9 1.8v-6.1c-1.3-.7-2.8-1.2-4.2-1.6-1.6-.4-3.2-.5-4.8-.5-2.3 0-4.5.4-6.6 1.1-3.9 1.4-6.9 4.5-8.3 8.3-.8 2.1-1.2 4.4-1.1 6.6 0 2.3.3 4.6 1.1 6.8.7 1.9 1.7 3.6 3.1 5.1 1.4 1.4 3.1 2.5 5 3.2 2.1.8 4.4 1.1 6.6 1.1 1.8 0 3.5-.2 5.3-.6 1.3-.5 2.8-1.1 4.1-1.8zm45.1 1.7h6.7v-25.1h9.7v-5.8h-26.1v5.8h9.7v25.1zm52.1 0h-7.1c2-5.4 4-10.7 6-15.9 2-5.2 4.1-10.2 6.2-15h7.2c2.1 5.1 4.2 10.3 6.2 15.5 2 5.2 4 10.3 5.9 15.5H198c-.8-2.3-1.5-4.5-2.2-6.7h-12.5c-.9 2.1-1.7 4.3-2.4 6.6zm4.1-12.3h8.7l-2.1-6-2.2-5.9c-1.5 4-3 7.9-4.4 11.9zm-14.3 6.5H156v-25.2h-6.7v30.9h21.3l.1-5.7zm16.8 42.9c1.3 2.1 2.5 4.2 3.8 6.3h-7.7c-2.1-3.8-4.2-7.5-6.4-11.2h-5.3v11.2h-6.6v-30.9h11.3c4.1 0 7.2.9 9.4 2.6 2.2 1.8 3.4 4.5 3.3 7.3.2 3.8-2.1 7.2-5.6 8.6 1.3 1.9 2.5 4 3.8 6.1zm-5-14.8c.1-1.4-.5-2.7-1.6-3.5-1.4-.8-3-1.2-4.6-1.1h-4.4v9.2h4.3c1.6.1 3.3-.3 4.7-1.1 1.1-.8 1.7-2.1 1.6-3.5zm36.5 5.6c2 5.2 4 10.3 5.9 15.5h-7.3c-.8-2.3-1.5-4.5-2.2-6.7h-12.6c-.8 2.2-1.5 4.5-2.2 6.7h-7.1c2-5.4 4-10.7 6-15.9 2-5.2 4.1-10.2 6.2-15h7.2c2 5.1 4 10.2 6.1 15.4zm-5.6 3.2-2.1-6-2.3-5.9c-1.5 4-3 7.9-4.4 11.9h8.8zm15.2-40.9c-2.2-3.6-4.5-7.2-6.8-10.7l-6.9-10.5h-6.8v30.9h6.4v-21.4c2.2 3.4 4.5 6.9 6.8 10.5s4.6 7.2 6.8 10.8h6.7v-30.9h-6.4l.2 21.3zm-120 9.3c-4.1 1.5-8.6 1.5-12.7 0-1.8-.7-3.5-1.8-4.8-3.2-1.4-1.5-2.4-3.2-3.1-5.1-1.4-4.3-1.4-9 0-13.4.7-1.9 1.7-3.6 3.1-5.1 1.4-1.4 3-2.5 4.8-3.2 4.1-1.5 8.6-1.5 12.7 0 1.8.7 3.5 1.8 4.8 3.2 1.4 1.5 2.4 3.2 3.1 5.1 1.4 4.3 1.4 9 0 13.4-.7 1.9-1.7 3.6-3.1 5.1-1.3 1.4-3 2.5-4.8 3.2zm1.1-9.4c1.3-3.6 1.3-7.6 0-11.2-.6-1.4-1.6-2.7-2.9-3.5-2.8-1.6-6.3-1.6-9.1 0-1.3.8-2.3 2.1-2.9 3.5-1.3 3.6-1.3 7.6 0 11.2.6 1.4 1.6 2.7 2.9 3.5 2.8 1.6 6.3 1.6 9.1 0 1.3-.9 2.3-2.1 2.9-3.5zm157.9-5.7c.1 2.9-.6 5.8-1.8 8.4-1.2 2.3-3 4.1-5.3 5.3-2.6 1.3-5.5 1.9-8.4 1.8h-11.8v-30.9h11.8c2.9-.1 5.8.5 8.4 1.8 2.3 1.2 4.1 3 5.3 5.2 1.3 2.7 1.9 5.6 1.8 8.4zm-6.9 0c0-3.1-.8-5.5-2.3-7.2-1.5-1.7-3.7-2.5-6.6-2.5H247V138h4.8c2.5.2 4.9-.8 6.6-2.5 1.5-1.7 2.3-4.1 2.3-7.3zm-136.4 42.9c1.7-2.5 3.4-4.9 5-7.4s3.2-5 4.8-7.4h-7.8c-.9 1.7-1.9 3.4-2.9 5.1s-2 3.3-3.1 5c-1.1-1.6-2.1-3.3-3.1-5s-2-3.4-2.9-5.1h-7.9l4.8 7.5c1.6 2.5 3.3 5 5.1 7.4-1.9 2.7-3.7 5.3-5.5 8-1.8 2.7-3.5 5.3-5.2 8h7.7c1-1.9 2.1-3.8 3.3-5.7s2.3-3.8 3.6-5.7l3.6 5.7c1.2 1.9 2.3 3.8 3.3 5.8h7.9c-1.7-2.7-3.4-5.4-5.2-8.1-1.8-2.8-3.7-5.5-5.5-8.1zm11.9-9h9.8v25.1h6.7V162h9.7v-5.8h-26.1v5.9z" fill="#fff"/></svg>