<svg xmlns="http://www.w3.org/2000/svg" viewBox="0 0 300 300"><path d="M300 150c0 82.8-67.2 150-150 150S0 232.8 0 150 67.2 0 150 0s150 67.2 150 150z" fill="#7826fc"/><path d="M44.1 127.9c3 0 5.9.5 8.7 1.5 2.5 1 4.8 2.5 6.7 4.4 1.9 2 3.3 4.4 4.2 7 2 6 2 12.4 0 18.4-.9 2.6-2.4 5-4.2 7-1.9 2-4.1 3.5-6.7 4.5-5.6 2.1-11.8 2.1-17.4 0-2.5-1-4.8-2.5-6.7-4.5-1.9-2-3.3-4.4-4.2-7-2-6-2-12.4 0-18.4.9-2.6 2.4-5 4.2-7 1.9-1.9 4.1-3.5 6.7-4.4 2.8-1.1 5.7-1.6 8.7-1.5zm0 36.3c2.2.1 4.4-.5 6.2-1.7 1.8-1.2 3.2-2.9 4-4.9 1.8-5 1.8-10.4 0-15.3-.8-2-2.2-3.7-4-4.8-3.9-2.2-8.6-2.2-12.5 0-1.8 1.2-3.2 2.8-4 4.8-1.8 5-1.8 10.4 0 15.3.8 2 2.2 3.7 4 4.9 1.9 1.2 4.1 1.7 6.3 1.7zm37.4-8.4v15.5h-9v-42.5H88c5.6 0 9.9 1.2 12.9 3.5s4.5 5.7 4.5 10c.2 5.2-2.9 9.9-7.7 11.8 1.8 2.8 3.6 5.6 5.3 8.5s3.5 5.7 5.2 8.7H97.7c-2.8-5.2-5.8-10.4-8.9-15.5h-7.3zm0-7.2h5.9c2.2.1 4.5-.4 6.4-1.5 1.5-1.1 2.3-2.9 2.2-4.8.1-1.9-.7-3.7-2.2-4.8-1.4-1-3.6-1.5-6.4-1.5h-6l.1 12.6zm43.3 4.3h-2.2v18.3h-9.1v-42.5h9.1v16.5h2.4c2.5-2.8 5-5.6 7.3-8.3s4.6-5.4 6.9-8.2h11c-2.9 3.4-5.8 6.7-8.7 10-2.9 3.3-5.9 6.6-9 10 3.3 3.7 6.5 7.4 9.7 11.1 3.2 3.7 6.4 7.5 9.7 11.4h-11.6c-2.5-3.1-5-6.1-7.5-9.1s-5.3-6-8-9.2zm59.6 18.4c-3.1-4.9-6.2-9.9-9.4-14.9s-6.3-9.8-9.4-14.5v29.4h-8.8v-42.5h9.3c3.2 4.8 6.4 9.6 9.5 14.4 3.1 4.8 6.2 9.7 9.3 14.7v-29.1h8.8v42.5h-9.3zm18.3-42.6H232v7.6h-20.1v9.2h17.8v7.6h-17.9v10.5H233v7.6h-30.4v-42.5zm58.3 26.4v16.1h-9.2v-16.1c-2.8-4.4-5.5-8.8-8.1-13.1-2.7-4.4-5.3-8.8-7.8-13.3h10.4c1.6 3.1 3.3 6.3 5 9.4 1.7 3.1 3.4 6.2 5.2 9.3 1.8-3.1 3.5-6.2 5.2-9.3s3.4-6.2 5-9.4H277c-2.6 4.4-5.2 8.9-7.9 13.3-2.6 4.4-5.3 8.8-8.1 13.1z" fill="#fff"/></svg>