<svg xmlns="http://www.w3.org/2000/svg" viewBox="0 0 239.995 240.052"><path d="M239.995 120.023a120.935 120.935 0 0 1-1.377 18.235q-6.633-8.473-13.306-16.797 6.85-8.517 13.648-17.237a121.14 121.14 0 0 1 1.035 15.799ZM65.718 144.127h46.65V79.096q-12.186 16.548-23.901 32.745-11.72 16.2-22.75 32.286Zm115.767 29.596h-36.488v27.854h-32.63v-27.854H34.465v-29.824q17.692-25.968 35.963-51.016 18.269-25.043 39.18-51.932h35.389v103.176h22.39q8.9-11.477 17.881-22.666-10.233-12.721-20.357-25.84-10.12-13.122-19.913-26.44h36.487q11.129 17.295 23.805 34.987 12.556-17.521 23.586-34.65a119.997 119.997 0 1 0-.788 102.68q-10.699-16.542-22.798-33.444-12.68 17.694-23.805 34.97Z" fill="#004be1"/><path d="M238.96 104.224a119.156 119.156 0 0 0-10.084-34.706q-11.033 17.124-23.586 34.65-12.68-17.694-23.805-34.986h-36.487q9.795 13.315 19.913 26.439 10.124 13.118 20.357 25.84-8.985 11.17-17.882 22.666h-22.389V40.951h-35.388Q88.695 67.832 70.428 92.883q-18.27 25.048-35.963 51.016v29.824h77.902v27.853h32.63v-27.853h36.488q11.129-17.293 23.805-34.97 12.114 16.905 22.798 33.444a119.137 119.137 0 0 0 10.53-33.94q-6.632-8.471-13.306-16.796a1625.928 1625.928 0 0 0 13.648-17.237Zm-126.593 39.903h-46.65q11.03-16.082 22.75-32.286 11.722-16.2 23.9-32.745Z" fill="#fff"/></svg>