<?xml version="1.0" encoding="UTF-8" standalone="no"?>
<svg
   xmlns:dc="http://purl.org/dc/elements/1.1/"
   xmlns:cc="http://creativecommons.org/ns#"
   xmlns:rdf="http://www.w3.org/1999/02/22-rdf-syntax-ns#"
   xmlns:svg="http://www.w3.org/2000/svg"
   xmlns="http://www.w3.org/2000/svg"
   xmlns:sodipodi="http://sodipodi.sourceforge.net/DTD/sodipodi-0.dtd"
   xmlns:inkscape="http://www.inkscape.org/namespaces/inkscape"
   id="Ebene_3"
   viewBox="0 0 243.17982 66.886274"
   height="66.85994"
   width="243.08447"
   version="1.1"
   inkscape:version="0.91 r13725"
   sodipodi:docname="cosmo_logo.svg">
  <metadata
     id="metadata69">
    <rdf:RDF>
      <cc:Work
         rdf:about="">
        <dc:format>image/svg+xml</dc:format>
        <dc:type
           rdf:resource="http://purl.org/dc/dcmitype/StillImage" />
        <dc:title></dc:title>
      </cc:Work>
    </rdf:RDF>
  </metadata>
  <defs
     id="defs67" />
  <sodipodi:namedview
     pagecolor="#ffffff"
     bordercolor="#666666"
     borderopacity="1"
     objecttolerance="10"
     gridtolerance="10"
     guidetolerance="10"
     inkscape:pageopacity="0"
     inkscape:pageshadow="2"
     inkscape:window-width="1920"
     inkscape:window-height="1138"
     id="namedview65"
     showgrid="false"
     fit-margin-top="0"
     fit-margin-left="0"
     fit-margin-right="0"
     fit-margin-bottom="0"
     inkscape:zoom="4.3627216"
     inkscape:cx="31.124182"
     inkscape:cy="31.429844"
     inkscape:window-x="-8"
     inkscape:window-y="-8"
     inkscape:window-maximized="1"
     inkscape:current-layer="text18" />
  <style
     id="style3">.st0{fill:#00a591}.st1{clip-path:url(#SVGID_2_)}.st2{clip-path:url(#SVGID_4_);fill:#181716}.st3{clip-path:url(#SVGID_6_)}.st4{clip-path:url(#SVGID_8_)}.st5{clip-path:url(#SVGID_10_)}</style>
  <g
     id="Ebene_1"
     data-name="Ebene 1"
     transform="matrix(0.23462281,0,0,0.23462281,-3.1316938,-1.4100831)">
    <polygon
       class="cls-1"
       points="791.67,98.89 863.38,98.89 805.36,141.03 827.53,209.22 769.52,167.08 724.71,199.63 699.87,291.05 844.09,291.05 921.55,6.01 777.32,6.01 777.32,6.01 770.11,32.53 "
       id="polygon11"
       style="fill:#00a591" />
    <path
       d="m 1074.32,338 -7.83,0 0,-11.58 7.36,0 c 4.9,0 6.92,1.95 6.92,5.83 0,3.58 -2.1,5.76 -6.46,5.76 m -50.17,17.51 -4.36,0 0,-28.33 4,0 c 9.49,0 13.78,4.21 13.78,13.86 0,9.49 -4.29,14.47 -13.39,14.47 m 61.07,-9.88 0,-0.15 c 4.82,-1.72 10.11,-5.85 10.11,-14.25 0,-10.43 -7.47,-15.8 -20.69,-15.8 l -22.45,0 0,18 -0.21,0 c -2.72,-10.85 -11.88,-18 -28.59,-18 l -31.62,0 -4.79,21.16 c -1,4.36 -1.87,9.89 -1.87,9.89 l -0.15,0 c 0,0 -1.09,-6.15 -2.1,-10.51 l -4.13,-20.54 -17.42,0 -4.12,20.56 c -1,4.36 -2.1,10.51 -2.1,10.51 l -0.11,0 c 0,0 -0.86,-5.53 -1.87,-9.89 l -4.83,-21.16 -15.76,0 13.85,51.82 15.81,0 7.85,-33.28 0.16,0 7.86,33.23 15.56,0 11.53,-43 0.16,0 0,43 17.68,0 c 17,0 26.31,-7.78 29.07,-18.9 l 0.14,0 0,18.9 14.31,0 0,-18.23 1.1,0 c 1.63,0 5.74,-0.09 8,3.53 l 8.8,14.78 15.4,0 -8,-13.46 c -2.64,-4.51 -4.82,-6.93 -6.53,-8.17"
       transform="translate(-50,-76.22)"
       id="path13"
       inkscape:connector-curvature="0" />
  </g>
  <g
     id="Ebene_2"
     data-name="Ebene 2"
     transform="matrix(0.23462281,0,0,0.23462281,-3.1316938,-1.4100831)">
    <path
       class="cls-2"
       d="M 748,258.06"
       transform="translate(-50,-76.22)"
       id="path16"
       inkscape:connector-curvature="0"
       style="fill:#1d1d1b" />
    <g
       transform="translate(3.93,182.43)"
       style="font-style:italic;font-size:219px;font-family:WDRSans-BlackItalic, 'WDR Sans';letter-spacing:-0.07em"
       id="text18">
      <path
         d="m 74.46,2.628 c 26.28,0 43.581,-9.855 51.027,-16.644 L 109.5,-44.019 c -7.227,5.694 -16.863,12.264 -30.879,12.264 -16.863,0 -25.404,-11.388 -25.404,-30.66 0,-29.127 17.082,-51.684 43.143,-51.684 12.264,0 20.586,2.847 27.156,7.446 l 18.834,-30.441 c -7.446,-5.913 -21.243,-11.388 -43.8,-11.388 -55.407,0 -89.133,41.829 -89.133,88.257 0,34.164 19.053,62.853 65.043,62.853 z"
         style="font-style:italic;font-size:219px;font-family:WDRSans-BlackItalic, 'WDR Sans';letter-spacing:-0.07em"
         id="path3386" />
      <path
         d="m 196.878,2.628 c 53.655,0 87.819,-41.391 87.819,-88.257 0,-35.04 -22.557,-62.853 -66.357,-62.853 -53.655,0 -88.695,40.953 -88.695,86.724 0,36.135 23.433,64.386 67.233,64.386 z m 3.066,-33.288 c -19.053,0 -26.718,-13.359 -26.718,-31.755 0,-26.28 14.016,-52.779 42.048,-52.779 19.053,0 25.842,12.702 25.842,30.441 0,26.718 -13.359,54.093 -41.172,54.093 z"
         style="letter-spacing:-0.06em"
         id="path3388" />
      <path
         d="m 320.56167,2.628 c 38.106,0 62.415,-15.987 62.415,-46.428 0,-24.309 -17.52,-35.697 -32.85,-44.019 -14.235,-7.665 -20.586,-12.045 -20.586,-19.272 0,-6.351 6.789,-9.198 16.644,-9.198 11.169,0 21.024,5.475 26.499,9.417 l 19.272,-28.251 c -7.008,-5.475 -19.491,-13.359 -45.333,-13.359 -31.317,0 -56.94,14.673 -56.94,43.8 0,22.995 13.359,34.821 28.47,43.8 17.958,10.731 24.09,14.016 24.09,20.805 0,7.008 -7.665,9.417 -20.586,9.417 -14.673,0 -25.842,-6.57 -30.222,-10.293 l -21.462,28.032 c 7.665,6.57 24.09,15.549 50.589,15.549 z"
         style="letter-spacing:-0.06em"
         id="path3390" />
      <path
         d="m 374.69916,0 37.668,0 18.177,-61.32 c 2.847,-9.636 5.694,-22.338 5.694,-22.557 l 0.438,0 c 0,0.219 0.438,12.921 1.314,22.119 l 5.694,61.758 39.42,0 28.689,-61.977 c 4.599,-10.074 8.979,-21.681 8.979,-21.9 l 0.438,0 c 0,0.219 -1.314,11.826 -1.971,22.557 l -4.38,61.32 40.953,0 6.132,-145.854 -41.391,0 -40.515,82.782 c -4.818,9.636 -7.665,17.301 -9.198,21.9 l -0.438,0 0,-4.599 c 0,-4.38 -0.219,-12.045 -0.876,-17.301 l -8.76,-82.782 -40.077,0 L 374.69916,0 Z"
         style="letter-spacing:-0.06em"
         id="path3392" />
      <path
         d="m 642.10802,2.628 c 53.655,0 87.819,-41.391 87.819,-88.257 0,-35.04 -22.557,-62.853 -66.357,-62.853 -53.655,0 -88.695,40.953 -88.695,86.724 0,36.135 23.433,64.386 67.233,64.386 z m 3.066,-33.288 c -19.053,0 -26.718,-13.359 -26.718,-31.755 0,-26.28 14.016,-52.779 42.048,-52.779 19.053,0 25.842,12.702 25.842,30.441 0,26.718 -13.359,54.093 -41.172,54.093 z"
         style="letter-spacing:-0.05em"
         id="path3394" />
    </g>
  </g>
</svg>
