<?xml version="1.0" encoding="utf-8"?>
<!-- Generator: Adobe Illustrator 26.0.1, SVG Export Plug-In . SVG Version: 6.00 Build 0)  -->
<svg version="1.1"
	 id="Ebene_2_00000107567308953110863000000009501698095410642086_" inkscape:version="0.91 r13725" sodipodi:docname="1live_logo.svg" xmlns:cc="http://creativecommons.org/ns#" xmlns:dc="http://purl.org/dc/elements/1.1/" xmlns:inkscape="http://www.inkscape.org/namespaces/inkscape" xmlns:rdf="http://www.w3.org/1999/02/22-rdf-syntax-ns#" xmlns:sodipodi="http://sodipodi.sourceforge.net/DTD/sodipodi-0.dtd" xmlns:svg="http://www.w3.org/2000/svg"
	 xmlns="http://www.w3.org/2000/svg" xmlns:xlink="http://www.w3.org/1999/xlink" x="0px" y="0px" viewBox="0 0 184.5 75"
	 style="enable-background:new 0 0 184.5 75;" xml:space="preserve">
<style type="text/css">
	.st0{fill:#141414;}
	.st1{fill:#FFFFFF;}
	.st2{fill-rule:evenodd;clip-rule:evenodd;fill:#FFFFFF;}
</style>
<sodipodi:namedview  bordercolor="#666666" borderopacity="1" gridtolerance="10" guidetolerance="10" id="namedview21" inkscape:current-layer="Ebene_2" inkscape:cx="27.183528" inkscape:cy="45.47504" inkscape:pageopacity="0" inkscape:pageshadow="2" inkscape:window-height="1138" inkscape:window-maximized="1" inkscape:window-width="1920" inkscape:window-x="-8" inkscape:window-y="-8" inkscape:zoom="10.475656" objecttolerance="10" pagecolor="#ffffff" showgrid="false">
	</sodipodi:namedview>
<circle class="st0" cx="171.7" cy="23.4" r="12.9"/>
<g>
	<path class="st0" d="M163.4,41.5c-0.5-3.9-3.3-7-6.4-8.9l2.7-7.6l0.7-1.8c0.3-1.3-0.3-2.5-1.4-2.9l-1.8-0.6
		c-2.8-0.9-7.8-1.9-13.6-1.1c-5.1,0.6-9.3,2.2-12,4.7c-0.9,0.8-1.7,1.6-2.4,2.4c-0.9,1-1.5,0.3-1.5-0.1l-0.1-0.7l-0.3-1.8
		c-0.2-1.3-1.3-2.1-2.6-2l-1.8,0.3l-10.9,1.4l-3.1,0.3l-3,0.3l-2-2.9l-1.1-1.8c1.2-1.6,1.5-3.6,1.3-5.4c-0.6-4.5-4.6-9.2-12.3-8.1
		c-2.2,0.3-5,1.8-6.4,3.6c0.2-0.6,0.3-1.3,0.3-2c0-3.9-3.1-7-7-7c-2.2,0-4.3,1.1-5.6,2.7c-0.1,0.1-0.1,0.1-0.2,0.2
		C73.1,3,73.1,3.1,73,3.2c-0.1,0.2-0.2,0.3-0.3,0.4v0.1c-0.1,0.2-0.2,0.4-0.3,0.6c0,0,0,0,0,0.1c-0.1,0.2-0.1,0.3-0.2,0.4
		c-0.1,0.3-0.2,0.7-0.3,1.1c-2.6-1.2-7-2.2-11.2-1.7l-7.2,0.9l-1.8,0.3c-1.3,0.2-2.1,1.3-2,2.6l0.3,1.8l1.2,10
		c0.1,0.9-0.5,1.7-1.5,1.9l-11.4,1.5l-0.9,0.1c-0.8,0.1-1.4,0.5-1.7,1.2l-0.4,0.9L29,36.9c-0.3,0.5-1,0.7-1.5,0.2l-9-9.9l-0.7-0.7
		c-0.5-0.5-1.2-0.8-2-0.7L15,25.9L3.8,27.3L2,27.6c-1.3,0.2-2.1,1.3-2,2.6l0.3,1.8L5,70.2L5.3,72c0.2,1.3,1.3,2.1,2.6,2l1.8-0.3
		l11.2-1.4l1.8-0.3c1.3-0.2,2.1-1.3,2-2.6l-0.3-1.8l-1.1-9l0.7,0.7l0,0l0,0c0.9,0.9,3.3,3.5,7.6,3c4.2-0.5,5.9-3.6,6.5-4.8l0,0l0,0
		l0.4-0.9l1.1,9l0.3,1.8c0.2,1.3,1.3,2.1,2.6,2l1.8-0.3l11.5-1.4l1.8-0.3c1.3-0.2,2.1-1.3,2-2.6l-0.3-1.8l-0.1-1
		c-0.1-0.4,0.5-0.7,0.8-0.3c0.3,0.3,0.7,0.7,1,1c3.2,2.9,7.3,4.2,11.9,3.6c3.1-0.3,5.9-1.6,8-3.4c2.1,1.3,4.7,1.8,7.7,1.5
		c3.9-0.5,7.1-2.1,9.2-4.5l0.3-0.3c2.6,2.1,6,2.9,10,2.5c3.5-0.4,6.4-1.5,8.5-3.4c2.1,1.3,4.7,1.8,7.6,1.5c3.1-0.3,5.8-1.5,7.9-3.2
		c2.9,0.8,7.8,1.8,14,1c5.3-0.7,9.6-2.3,12.6-4.8C162.3,50.4,164,46.2,163.4,41.5z"/>
	<g>
		<g>
			<path class="st1" d="M54.2,8.9l7.2-0.9c7.9-0.9,12.1,2.6,12.8,8.3c0.7,5.8-2.5,10.8-10.5,11.8l-7,0.9L54.2,8.9z M63.6,23.5
				c3.5-0.4,5-2.6,4.5-6.3c-0.4-3.8-2.3-5.1-6-4.7l-1.5,0.2l1.4,11L63.6,23.5z"/>
		</g>
		<g>
			<path class="st1" d="M75.9,6.9c-0.2-1.6,0.9-3.1,2.7-3.3c1.8-0.3,3.3,0.9,3.5,2.6c0.2,1.6-0.9,3.2-2.7,3.3
				C77.6,9.6,76.1,8.5,75.9,6.9z M78.1,22.1l-1.4-11.1l5.4-0.7l1.2,9.7c0.2,1.4,1.1,1.5,1.9,1.5l0.3,2.7c-0.7,0.8-1.8,1.4-3.3,1.5
				C79.5,26.3,78.4,24.5,78.1,22.1z"/>
		</g>
		<g>
			<path class="st1" d="M86.5,17.5c-0.6-5,2.7-8.2,6.9-8.8c4.6-0.6,7.3,1.6,7.6,4.5s-2,4.5-5.9,5l-2.7,0.3c0.8,1.6,2.1,2,3.6,1.8
				c2-0.3,2.8-0.8,3.6-1.2l2,3.1c-1.1,0.8-2.4,1.7-5.7,2.1C90.6,25,87.1,22.5,86.5,17.5z M91.8,15.4l2.2-0.3
				c1.2-0.2,1.8-0.7,1.7-1.5c-0.1-0.8-0.9-1.2-2-1.1C92.7,12.6,91.8,13.2,91.8,15.4z"/>
		</g>
	</g>
	<g>
		<g>
			<path class="st1" d="M4.3,31.4L15.5,30l13.1,14.2c0.3,0.3,0.9,0.3,1.1-0.2l9.3-17l11.5-1.4L55.2,64l-11.6,1.4l-2.5-20
				c-0.1-0.8-0.7-0.9-1-0.3l-5.8,10.7c-0.7,1.3-1.5,2.5-3.4,2.7c-1.9,0.2-3-0.8-4-1.8l-8.2-9c-0.4-0.4-1-0.2-0.9,0.6l2.5,20
				L8.9,69.6L4.3,31.4z M58.8,48.7c-1.3-10.6,5.3-16.8,14.7-17.9c7-0.9,12.4-0.1,14.6,0.7l2.1,17.7c0.3,2.7,2.1,3.1,3.8,3.1l0.7,5.4
				c-1.3,1.5-3.5,2.7-6.5,3.1c-4.1,0.5-6.4-1.2-7.6-3.9c-1.1,3.2-4.2,5.4-8.2,5.9C65.9,63.4,60.2,59.7,58.8,48.7z M79.1,48L78,39.1
				c-0.6-0.2-1.9-0.3-3.4-0.1c-2.8,0.3-5,2.7-4.3,8.3c0.6,5.1,2.6,6.8,5.5,6.4C78.1,53.5,79.5,51.6,79.1,48z M97.1,49.2l-2.5-20.3
				l10.8-1.3l2.2,18.3c0.3,2.4,1.6,3.2,3.7,2.9c2-0.3,3.8-1.3,3.4-4.1l-2.2-18l10.9-1.4l2.4,19.3c0.3,2.7,2.1,3.1,3.8,3.1l0.7,5.4
				c-1.3,1.5-3.5,2.7-6.5,3.1c-4.1,0.5-6.4-1.2-7.6-3.9c-1.3,3.3-3.6,5.3-8.6,5.9C101,59.1,97.8,54.9,97.1,49.2z M132.7,52.9
				l2.4-7.6c2.7,0.7,6.1,1.5,9.9,1c3.1-0.3,3.9-0.9,3.8-2.1c-0.2-1.3-2.5-1.5-5.8-1.7c-4.9-0.3-11-1.5-11.8-8.6
				c-0.8-6.3,3.9-10.2,12.5-11.3c5.6-0.7,10.4,0.3,12.3,0.9l-2.8,7.6c-1.8-0.4-5.7-1.3-8.2-0.9c-2.1,0.3-3.4,0.6-3.3,1.9
				c0.2,1.5,3.2,1.5,7.1,2c5.1,0.5,9.9,1.9,10.6,7.9c0.9,6.9-4.8,11-13.6,12.1C139.6,54.8,135.4,53.6,132.7,52.9z"/>
		</g>
	</g>
	<g>
		<g>
			<path class="st0" d="M127,64.3h3.2l1,4.2c0.2,0.7,0.3,1.6,0.3,2.1h0.1c0.1-0.4,0.3-1.3,0.4-2.1l1.1-4.2h2.8l1.1,4.2
				c0.2,0.7,0.3,1.6,0.4,2.1h0.1c0.1-0.4,0.2-1.3,0.3-2.1l1-4.2h2.8L139,74.8h-2.6l-1.4-4.8c-0.2-0.7-0.3-1.5-0.4-1.9l0,0
				c-0.1,0.3-0.3,1.2-0.4,1.9l-1.4,4.8h-3L127,64.3z"/>
			<path class="st0" d="M143,64.3h3.7c4.1,0,6,2.1,6,5.1s-2,5.4-6.1,5.4H143V64.3z M146.9,72.4c1.8,0,2.7-1,2.7-2.9
				c0-2-0.9-2.7-2.7-2.7H146v5.7H146.9z"/>
			<path class="st0" d="M154.3,64.3h4.2c2.7,0,4.2,1.1,4.2,3.2c0,1.5-1.2,2.7-2.1,2.9l1.6,1.9c0.5,0.5,0.9,0.8,1.3,0.9v1.4
				c-0.3,0.2-0.8,0.4-1.5,0.4c-0.8,0-1.4-0.3-1.9-0.9l-2.4-3.1h-0.3v3.8h-3L154.3,64.3L154.3,64.3z M158.5,68.8
				c0.9,0,1.3-0.4,1.3-1.2s-0.4-1.2-1.4-1.2h-1.1v2.3L158.5,68.8L158.5,68.8z"/>
		</g>
	</g>
</g>
<g>
	<path class="st2" d="M171.7,12.4c-6,0-10.9,4.9-10.9,10.9s4.9,10.9,10.9,10.9s10.9-4.9,10.9-10.9S177.7,12.4,171.7,12.4z
		 M171.7,32.4c-4.9,0-9-4-9-9s4-9,9-9c4.9,0,9,4,9,9S176.6,32.4,171.7,32.4z"/>
	<polygon class="st2" points="175.2,26.7 175.2,17.7 166.2,21 166.2,23.2 169.2,22.1 169.2,28.9 	"/>
</g>
</svg>
